<svg width="100" height="100" viewBox="0 0 100 100" fill="none" xmlns="http://www.w3.org/2000/svg">
  <path d="M76.5625 0H23.4375C10.4933 0 0 10.4933 0 23.4375V76.5625C0 89.5067 10.4933 100 23.4375 100H76.5625C89.5067 100 100 89.5067 100 76.5625V23.4375C100 10.4933 89.5067 0 76.5625 0Z" fill="#F4F2ED"/>
  <g transform="translate(25, 20.6) scale(0.25)">
    <path fill="#dd002e" d="M 0 50 L 100 0 L 100 235 L 10 185 Z"></path>
    <path fill="#c4002b" d="M 100 0 L 200 50 L 190 185 L 100 235 Z"></path>
    <path fill="#fff" d="M 100 35 L 30 185 H 50 L 100 70 Z"></path>
    <path fill="#fff" d="M 100 35 L 170 185 L 150 185 L 100 70 Z"></path>
    <path fill="#fff" d="M 78 120 L 122 120 L 132 140 L 68 140 Z"></path>
  </g>
</svg>
