<svg width="100" height="100" viewBox="0 0 100 100" fill="none" xmlns="http://www.w3.org/2000/svg">
<path d="M76.5625 0H23.4375C10.4933 0 0 10.4933 0 23.4375V76.5625C0 89.5067 10.4933 100 23.4375 100H76.5625C89.5067 100 100 89.5067 100 76.5625V23.4375C100 10.4933 89.5067 0 76.5625 0Z" fill="#F4F2ED"/>
<path d="M27.2956 72.7041L14.4647 59.8732C12.9428 58.3132 12 56.1074 12 53.9515C12 52.9533 12.5625 51.393 12.987 50.4997L24.8309 25.8306L27.2956 72.7041Z" fill="#01579B"/>
<path d="M71.2137 28.2956L58.3828 15.4647C57.2637 14.3397 54.9311 13 52.957 13C51.259 13 49.5938 13.3419 48.5186 13.987L24.8364 25.8309L71.2137 28.2956ZM42.5912 88H73.6784V74.6784L50.487 67.2733L29.2696 74.6784L42.5912 88Z" fill="#40C4FF"/>
<path d="M24.8309 65.7956C24.8309 69.7545 25.3272 70.7251 27.2957 72.7044L29.2697 74.6784H73.6785L51.9704 50.0093L24.8309 25.8306V65.7959V65.7956Z" fill="#29B6F6"/>
<path d="M64.305 25.8254H24.8309L73.6785 74.673H87.0001V44.0821L71.2082 28.2902C68.9916 26.068 67.0231 25.8254 64.305 25.8254Z" fill="#01579B"/>
<path opacity="0.2" d="M27.792 73.1951C25.818 71.2158 25.3273 69.2638 25.3273 65.7956V26.3213L24.8365 25.8306V65.7953C24.8307 69.2635 24.8307 70.2229 27.792 73.1948V73.1951Z" fill="white"/>
<path opacity="0.2" d="M86.5092 43.5911V74.182H73.1876L73.6783 74.6783H86.9999V44.0818L86.5092 43.5911Z" fill="#263238"/>
<path opacity="0.2" d="M71.2137 28.2953C68.7656 25.847 66.7641 25.8306 63.8142 25.8306H24.8364L25.3271 26.3213H63.8142C65.2863 26.3213 69.0026 26.0731 71.2137 28.2953Z" fill="white"/>
<path opacity="0.2" d="M86.5091 43.5912L71.2135 28.2953L58.3827 15.465C57.2635 14.3397 54.9309 13 52.9569 13C51.2588 13 49.5936 13.3419 48.5184 13.987L24.8363 25.8309L12.9924 50.5C12.5676 51.3988 12.0051 52.9592 12.0051 53.9518C12.0051 56.1077 12.9538 58.3076 14.4702 59.8735L26.2917 71.6128C26.573 71.96 26.9041 72.313 27.2955 72.7044L27.7862 73.1951L29.2639 74.6728L42.0948 87.5037L42.5855 87.9944H73.6668V74.6731H86.9884V44.0816L86.5088 43.5909L86.5091 43.5912Z" fill="url(#paint0_radial_164_27)"/>
<defs>
<radialGradient id="paint0_radial_164_27" cx="0" cy="0" r="1" gradientUnits="userSpaceOnUse" gradientTransform="translate(3761.17 3762.31) scale(3749.47 3749.46)">
<stop stop-color="white" stop-opacity="0.1"/>
<stop offset="1" stop-color="white" stop-opacity="0"/>
</radialGradient>
</defs>
</svg>
