<svg width="100" height="100" viewBox="0 0 100 100" fill="none" xmlns="http://www.w3.org/2000/svg">
<path d="M76.5625 0H23.4375C10.4933 0 0 10.4933 0 23.4375V76.5625C0 89.5067 10.4933 100 23.4375 100H76.5625C89.5067 100 100 89.5067 100 76.5625V23.4375C100 10.4933 89.5067 0 76.5625 0Z" fill="#F4F2ED"/>
<mask id="mask0_83_184" style="mask-type:luminance" maskUnits="userSpaceOnUse" x="23" y="10" width="53" height="80">
<path d="M23.8281 10.9375H75.9219V89.0625H23.8281V10.9375Z" fill="white"/>
</mask>
<g mask="url(#mask0_83_184)">
<path d="M36.8541 89.0626C44.0416 89.0626 49.8748 83.2294 49.8748 76.0419V63.0208H36.8541C29.6666 63.0208 23.833 68.8544 23.833 76.0419C23.833 83.2294 29.6666 89.0626 36.8541 89.0626Z" fill="#0ACF83"/>
<path d="M23.833 50C23.833 42.8125 29.6666 36.9792 36.8541 36.9792H49.8748V63.0207H36.8541C29.6666 63.0207 23.833 57.1875 23.833 50Z" fill="#A259FF"/>
<path d="M23.8331 23.9582C23.8331 16.7707 29.6667 10.9375 36.8542 10.9375H49.8749V36.9793H36.8542C29.6667 36.9793 23.8331 31.1457 23.8331 23.9582Z" fill="#F24E1E"/>
<path d="M49.8749 10.9375H62.8956C70.0831 10.9375 75.9167 16.7707 75.9167 23.9582C75.9167 31.1457 70.0831 36.9793 62.8956 36.9793H49.8749V10.9375Z" fill="#FF7262"/>
<path d="M75.9167 50C75.9167 57.1875 70.0831 63.0207 62.8956 63.0207C55.7081 63.0207 49.8749 57.1875 49.8749 50C49.8749 42.8125 55.7081 36.9792 62.8956 36.9792C70.0831 36.9792 75.9167 42.8125 75.9167 50Z" fill="#1ABCFE"/>
</g>
</svg>
