<svg width="30" height="30" viewBox="0 0 30 30" fill="none" xmlns="http://www.w3.org/2000/svg">
<path d="M22.9688 0H7.03125C3.148 0 0 3.148 0 7.03125V22.9688C0 26.852 3.148 30 7.03125 30H22.9688C26.852 30 30 26.852 30 22.9688V7.03125C30 3.148 26.852 0 22.9688 0Z" fill="white"/>
<path d="M15.9595 4L6 13.9595L9.08264 17.0421L22.1249 4H15.9595ZM15.8901 13.1845L10.5575 18.5171L13.6518 21.6576L16.7287 18.5806L22.1249 13.1845H15.8901Z" fill="#47C5FB"/>
<path d="M13.6518 21.6575L15.9942 23.9999H22.1248L16.7286 18.5806L13.6518 21.6575Z" fill="#00569E"/>
<path d="M10.5229 18.5519L13.6056 15.4692L16.7287 18.5808L13.6518 21.6578L10.5229 18.5519Z" fill="#00B5F8"/>
</svg>
