<svg width="100" height="100" viewBox="0 0 100 100" fill="none" xmlns="http://www.w3.org/2000/svg">
<path d="M76.5625 0H23.4375C10.4933 0 0 10.4933 0 23.4375V76.5625C0 89.5067 10.4933 100 23.4375 100H76.5625C89.5067 100 100 89.5067 100 76.5625V23.4375C100 10.4933 89.5067 0 76.5625 0Z" fill="#F4F2ED"/>
<path d="M12.6724 63.8087C13.3292 63.8653 13.9487 64.1188 14.535 64.4054C14.9436 64.6164 15.2207 65.0163 15.3583 65.4466C15.7042 66.4049 15.51 67.5183 14.8818 68.3165C14.4906 68.7895 14.0139 69.2338 13.3989 69.3802C12.485 69.6503 11.4779 69.3192 10.8149 68.6588C10.0247 67.7832 9.73632 66.4259 10.2772 65.349C10.7007 64.4352 11.6678 63.8139 12.6724 63.8087ZM20.6807 54.7809C21.8952 55.4884 23.0452 56.3544 23.899 57.4836C24.4714 58.2441 24.9785 59.0587 25.3846 59.9203C25.6721 60.5502 25.8985 61.2245 25.9133 61.9224C25.9316 62.5933 25.5177 63.184 25.0456 63.6214C24.5072 64.0605 23.9791 64.523 23.3667 64.8577C22.5792 65.2715 21.6531 65.4762 20.7695 65.3107C19.6858 65.1295 18.6708 64.6094 17.8492 63.8861C18.1446 63.6972 18.4747 63.4342 18.4747 63.049C18.5349 62.3284 17.8274 61.7021 17.127 61.7551C16.8604 61.8729 16.6913 62.1307 16.4996 62.3389C16.0588 61.648 15.7121 60.8369 15.7923 60.0023C16.0153 58.5202 16.5023 57.0514 17.3883 55.8291C17.4815 55.7176 17.4912 55.5703 17.5042 55.4327C17.953 55.1295 18.2561 54.6276 18.7823 54.4395C19.4253 54.2007 20.1275 54.4264 20.6807 54.7809ZM52.5322 41.7865C52.9783 42.2264 53.2911 42.805 53.4104 43.4201C53.5577 44.279 53.5114 45.1695 53.2108 45.9919C52.9617 46.8082 52.5453 47.6934 51.7332 48.0706C51.7237 47.5976 51.6166 47.135 51.5363 46.6706C51.1931 44.8409 50.6598 43.0419 49.8803 41.3501C49.7398 41.0268 49.5822 40.7105 49.3731 40.4257C50.5851 40.3072 51.6366 41.0678 52.5322 41.7865ZM56.9267 38.4627C57.5723 38.5621 58.136 39.0237 58.3939 39.6199C58.7354 40.4205 58.5203 41.4423 57.8119 41.9746C57.1688 42.473 56.1871 42.4557 55.5772 41.9102C55.8856 41.6228 56.234 41.2264 56.1312 40.7741C55.8236 40.3777 55.212 40.4343 54.8166 40.6626C54.7224 40.024 54.9446 39.3331 55.4508 38.9183C55.8412 38.5516 56.3996 38.3948 56.9267 38.4627ZM31.7246 32.9252C31.9989 33.0245 32.2699 33.1751 32.4319 33.4288C32.0259 33.501 31.6478 33.6665 31.2653 33.8111C29.7554 34.4037 28.2717 35.0658 26.8472 35.8413C26.2202 36.1853 25.5918 36.54 25.0508 37.0121C24.6631 37.3563 24.2057 37.6246 23.8773 38.0315C23.7648 36.9755 23.9774 35.8578 24.6204 34.9952C24.9002 34.5386 25.3549 34.2442 25.7208 33.8662C26.227 33.4 26.8543 33.0812 27.5025 32.8607C27.9372 32.7858 28.3449 32.5862 28.7901 32.5679C29.7773 32.534 30.7854 32.595 31.7244 32.9251L31.7246 32.9252ZM21.0421 23.0183C21.5919 23.1515 22.1721 23.3658 22.5041 23.8529C23.0826 24.6692 22.9884 25.828 22.3917 26.6086L22.3463 26.5632C22.2121 26.4291 22.0816 26.2861 21.9194 26.1851C21.7408 26.0675 21.4559 26.1678 21.4071 26.3803C21.3436 26.6923 21.4934 26.9902 21.6432 27.2541C21.1162 27.362 20.543 27.4344 20.0341 27.2141C19.2717 26.9004 18.6828 26.1529 18.6174 25.3244C18.6594 24.6404 19.0331 24.0061 19.5096 23.5287C19.9348 23.1925 20.4881 22.9266 21.0421 23.0183Z" fill="#9B99A6"/>
<path d="M18.4749 63.0491C18.4749 63.4341 18.1446 63.6973 17.8493 63.8863C17.4381 64.1389 17.0137 64.3689 16.6113 64.6356C16.1922 64.9039 15.8062 65.2235 15.3584 65.4467C15.2208 65.0163 14.9437 64.6163 14.535 64.4055C15.0439 63.5892 15.8777 63.0578 16.4996 62.339C16.6914 62.1308 16.8604 61.873 17.127 61.7552C17.8276 61.702 18.5349 62.3285 18.4749 63.0491ZM56.1313 40.7743C56.234 41.2263 55.8856 41.6229 55.5772 41.9103C54.902 42.474 54.1919 43.0115 53.4104 43.4201C53.2911 42.8051 52.9784 42.2265 52.5322 41.7866C53.2458 41.3187 54.0847 41.0984 54.8166 40.6627C55.2122 40.4344 55.8237 40.3778 56.1313 40.7742V40.7743ZM21.9196 26.1852C22.0818 26.2862 22.2123 26.4292 22.3465 26.5633C22.5905 26.8622 22.8735 27.1235 23.1367 27.405C24.2074 28.582 25.1712 29.8504 26.1869 31.0736C26.6534 31.6415 27.1146 32.2137 27.5705 32.7901L27.5025 32.8606C26.8543 33.0811 26.2271 33.3999 25.7209 33.8661C25.503 33.6422 25.355 33.3677 25.1893 33.1063C24.2894 31.6696 23.4155 30.2156 22.6028 28.7276C22.316 28.2152 21.9379 27.7612 21.6434 27.2542C21.4936 26.9902 21.3438 26.6923 21.4073 26.3804C21.4561 26.1677 21.741 26.0676 21.9196 26.1852Z" fill="#F79727"/>
<path d="M34.4594 33.048C35.5431 32.8746 36.6435 32.9209 37.7369 32.9382C40.9474 33.1569 44.1501 34.3915 46.4728 36.6559C46.7996 36.8806 46.999 37.2309 47.2875 37.4956C48.1081 38.3765 48.7345 39.4124 49.3732 40.4257C49.5823 40.7105 49.7399 41.0268 49.8802 41.3499C50.6599 43.0419 51.1931 44.8411 51.5364 46.6706C51.6166 47.135 51.7237 47.5976 51.7334 48.0706C51.6942 48.8862 51.8752 49.7017 51.763 50.5153C51.7081 50.9563 51.7576 51.404 51.6766 51.8414C51.5512 52.6631 51.1905 53.4201 50.8264 54.158C50.652 54.5257 50.2688 54.7096 49.9482 54.9274C49.6213 55.14 49.1885 55.3342 48.8086 55.139C48.2081 54.7975 47.919 54.1144 47.7823 53.4681C47.6316 52.8685 47.6838 52.2483 47.675 51.6375C47.5801 49.9317 47.4852 48.2128 47.1071 46.5408C46.8536 45.4449 46.4196 44.34 45.5736 43.5647C45.0379 43.1125 44.4245 42.7475 43.7659 42.507C42.7805 42.2142 41.7533 42.0444 40.7235 42.0661C39.4803 42.0383 38.2553 42.2988 37.059 42.6116C35.849 42.9261 34.7058 43.442 33.5768 43.9707C32.6803 44.3507 31.8325 44.8289 30.9709 45.2793C30.4883 45.5398 30.0107 45.8133 29.576 46.1487C28.7894 46.7491 27.9434 47.2934 27.2986 48.0559C26.6521 48.8183 26.0781 49.6895 25.882 50.6853C25.6355 52.1506 25.916 53.6581 26.4379 55.0346C27.0346 56.5539 27.926 57.9523 29.0297 59.1536C29.7929 60.1103 30.8089 60.8108 31.7942 61.5182C32.3336 61.8719 32.6871 62.4975 32.6917 63.1449C32.641 63.685 32.2289 64.1083 31.8037 64.4037C31.3455 64.6868 30.8098 64.8707 30.267 64.8541C28.9958 64.8429 27.7143 64.6913 26.5076 64.28C25.9988 64.1093 25.5309 63.8453 25.0456 63.6214C25.5179 63.184 25.9317 62.5933 25.9134 61.9225C25.8985 61.2247 25.6721 60.5502 25.3845 59.9203C24.9785 59.0587 24.4716 58.2441 23.8991 57.4836C23.0452 56.3546 21.8952 55.4884 20.6808 54.7809C20.1275 54.4264 19.4253 54.2007 18.7823 54.4395C18.2561 54.6277 17.9529 55.1295 17.5042 55.4325C17.3727 55.0502 17.4345 54.6381 17.3815 54.2434C17.3152 53.7826 17.3517 53.3164 17.3073 52.8548C17.2368 52.2178 17.2707 51.5756 17.2595 50.9361C17.2412 49.686 17.2646 48.4288 17.4571 47.1909C17.6437 46.0416 18.1158 44.9631 18.6508 43.9375C19.231 42.8521 19.9716 41.8553 20.8079 40.9527C21.2653 40.4265 21.7532 39.9237 22.2969 39.4865C22.7856 38.9595 23.4199 38.5873 23.8773 38.0315C24.2057 37.6246 24.6631 37.3563 25.0508 37.0121C25.5919 36.5398 26.22 36.1853 26.8473 35.8413C28.2719 35.0658 29.7555 34.4037 31.2653 33.8112C31.6478 33.6667 32.026 33.5011 32.4319 33.4288C33.1211 33.3774 33.771 33.109 34.4594 33.048Z" fill="#787880"/>
<path d="M72.29 58.2362C72.6465 58.7511 72.6481 59.4045 72.6395 60.0056C73.42 59.0544 74.3818 58.1866 75.5772 57.8119C77.1244 57.3335 78.8731 57.5348 80.2688 58.3591C81.2263 58.907 81.9886 59.7599 82.4992 60.7314C83.2423 62.1002 83.4741 63.6885 83.4392 65.2289C83.3992 66.8998 82.9662 68.6021 81.9896 69.9778C81.0565 71.2942 79.5466 72.1829 77.9382 72.3388C76.7124 72.4539 75.3994 72.2883 74.3679 71.5704C73.7033 71.1434 73.1735 70.5528 72.6437 69.9761C72.6343 71.7916 72.6463 73.6074 72.6376 75.4231C72.6237 76.0835 72.5444 76.8144 72.0757 77.3223C71.7063 77.7231 71.1226 77.8171 70.6042 77.7614C70.1929 77.7275 69.7478 77.5636 69.5386 77.1847C69.2599 76.6749 69.2041 76.0791 69.1893 75.5083C69.1877 70.193 69.1893 64.8784 69.1877 59.5631C69.1902 58.9802 69.3051 58.333 69.7591 57.9242C70.4788 57.2926 71.7561 57.4225 72.29 58.2362ZM39.7451 52.4434C40.2748 52.8719 40.4219 53.5925 40.428 54.2416C40.4359 56.0686 40.4324 57.8956 40.4299 59.7226C41.0589 59.0273 41.7663 58.366 42.6436 58.0018C43.7405 57.5453 44.9778 57.4504 46.14 57.6743C47.3554 57.9078 48.4705 58.6631 49.0768 59.7504C49.6798 60.7027 49.752 61.864 49.7747 62.9609C49.7791 65.2845 49.7738 67.608 49.7774 69.9317C49.786 70.4962 49.7461 71.0939 49.4427 71.5869C48.8538 72.581 47.1932 72.6628 46.5206 71.7238C46.2035 71.2524 46.1425 70.6651 46.139 70.112C46.1373 68.0768 46.139 66.0416 46.1382 64.0064C46.1286 63.0455 46.0554 62.0278 45.5518 61.1836C45.1066 60.4796 44.1944 60.3063 43.4216 60.3603C42.0503 60.4308 40.855 61.553 40.6005 62.886C40.4751 63.542 40.4482 64.2128 40.4332 64.8793C40.428 66.6505 40.4368 68.4218 40.429 70.1939C40.4219 70.8054 40.2965 71.4737 39.8366 71.9146C39.3941 72.3527 38.7179 72.4391 38.128 72.3327C37.7474 72.2656 37.3875 72.059 37.1678 71.7377C36.8577 71.2917 36.7838 70.7306 36.7777 70.2C36.7784 65.0858 36.7784 59.9726 36.7784 54.8584C36.7759 54.2077 36.7401 53.5151 37.0529 52.9199C37.533 51.9581 38.9445 51.8135 39.7451 52.4434ZM89.3957 58.0297C89.8436 58.4366 90.0022 59.0639 89.9943 59.6511C89.9943 63.1639 89.9961 66.6776 89.9936 70.1905C89.99 70.7819 89.8645 71.4223 89.4306 71.8553C88.9516 72.3615 88.1648 72.4939 87.5192 72.2683C87.0166 72.0916 86.6392 71.6471 86.4833 71.1453C86.296 70.585 86.3544 69.9883 86.3465 69.4089C86.3501 66.0991 86.3371 62.7901 86.3527 59.4811C86.3543 58.6789 86.8126 57.8136 87.6413 57.6202C88.2441 57.4677 88.9392 57.5863 89.3959 58.0297H89.3957ZM61.2925 57.547C62.5655 57.6804 63.9402 57.9949 64.8367 58.9794C65.6993 59.9456 65.8928 61.3029 65.9599 62.5496C65.9904 64.1684 65.9528 65.7881 65.9484 67.4068C65.9519 68.2711 66.1768 69.1118 66.4285 69.9317C66.5471 70.4064 66.7508 70.9353 66.5036 71.404C66.1758 72.0217 65.4659 72.4381 64.7618 72.3641C64.4115 72.3251 64.1024 72.128 63.8497 71.8928C63.3549 71.4268 62.9863 70.849 62.6238 70.2793C61.4399 71.2088 60.1034 72.0375 58.5917 72.2709C57.2604 72.4791 55.8152 72.4095 54.6311 71.708C53.6267 71.1409 52.886 70.1215 52.6865 68.9829C52.5315 68.0751 52.6587 67.0976 53.1387 66.3021C53.5691 65.5851 54.24 65.0276 55.0014 64.6903C55.8013 64.3209 56.6856 64.2164 57.5368 64.023C59.1633 63.6954 60.7848 63.3365 62.3791 62.8764C62.3415 62.107 62.2422 61.2795 61.7629 60.6477C61.3032 60.1215 60.5504 60.0388 59.8942 60.0075C58.982 59.9943 57.9732 60.0414 57.2318 60.6416C56.5478 61.1514 56.2124 61.9607 55.7018 62.6186C55.4797 62.8964 55.0841 62.8991 54.7592 62.9033C54.0919 62.9111 53.4149 62.432 53.3017 61.756C53.2154 61.1434 53.3922 60.5188 53.6945 59.9882C54.2329 59.0098 55.2288 58.3913 56.2455 58.0027C57.8538 57.4128 59.6068 57.405 61.2925 57.547ZM62.3896 65.0571C60.951 65.5441 59.4438 65.7655 57.9749 66.1365C57.4112 66.2908 56.852 66.5965 56.5156 67.0862C56.0887 67.8049 56.2751 68.8034 56.905 69.3462C57.4888 69.8994 58.3504 69.9961 59.1162 69.8941C60.2393 69.7521 61.3928 69.1798 61.9468 68.1525C62.4103 67.1933 62.3738 66.0964 62.3894 65.0571H62.3896ZM75.7062 60.3306C74.7192 60.5232 73.8785 61.2254 73.4079 62.1002C72.8521 63.1639 72.7668 64.4029 72.8348 65.5807C72.907 66.7551 73.313 67.9714 74.2252 68.7615C75.0294 69.5038 76.236 69.7704 77.2797 69.4411C78.0264 69.2042 78.6527 68.6587 79.0421 67.9844C79.7383 66.8195 79.8534 65.4082 79.7393 64.0838C79.6303 62.9199 79.2052 61.7116 78.2809 60.9465C77.5787 60.3523 76.601 60.139 75.7062 60.3306ZM89.3263 52.6063C90.0816 53.1204 90.1723 54.2511 89.7454 55.003C89.1416 55.984 87.6135 56.0852 86.8172 55.2887C86.3815 54.8696 86.2761 54.2111 86.3832 53.6378C86.5088 52.9748 87.0829 52.4581 87.7232 52.2978C88.2687 52.1672 88.8725 52.2709 89.3263 52.6063Z" fill="#464646"/>
</svg>
