<svg width="100" height="100" viewBox="0 0 100 100" fill="none" xmlns="http://www.w3.org/2000/svg">
<path d="M0 20C0 8.9543 8.95431 0 20 0H80C91.0457 0 100 8.95431 100 20V80C100 91.0457 91.0457 100 80 100H20C8.9543 100 0 91.0457 0 80V20Z" fill="#F7DF1E"/>
<path d="M26.2937 83.5671L33.9461 78.9359C35.4226 81.5534 36.7656 83.7683 39.9871 83.7683C43.075 83.7683 45.0222 82.5605 45.0222 77.862V45.9097H54.4195V77.9949C54.4195 87.7281 48.714 92.1585 40.3898 92.1585C32.8722 92.1585 28.5086 88.2652 26.2933 83.5663M59.5238 82.5601L67.1754 78.13C69.1898 81.4195 71.8078 83.8359 76.439 83.8359C80.3332 83.8359 82.816 81.889 82.816 79.2038C82.816 75.982 80.2652 74.8406 75.9691 72.9616L73.6203 71.9538C66.8402 69.0683 62.3429 65.4433 62.3429 57.7909C62.3429 50.7425 67.7129 45.3722 76.1039 45.3722C82.0781 45.3722 86.3742 47.4534 89.4617 52.8906L82.1445 57.5898C80.5332 54.7034 78.7886 53.5624 76.1035 53.5624C73.3511 53.5624 71.6058 55.3077 71.6058 57.5898C71.6058 60.4089 73.3512 61.5507 77.3785 63.296L79.7277 64.3027C87.716 67.7265 92.2133 71.2167 92.2133 79.0699C92.2133 87.5284 85.5679 92.1597 76.6402 92.1597C67.914 92.1597 62.2754 87.998 59.5234 82.5605" fill="black"/>
</svg>
