<svg width="100" height="100" viewBox="0 0 100 100" fill="none" xmlns="http://www.w3.org/2000/svg">
  <path d="M76.5625 0H23.4375C10.4933 0 0 10.4933 0 23.4375V76.5625C0 89.5067 10.4933 100 23.4375 100H76.5625C89.5067 100 100 89.5067 100 76.5625V23.4375C100 10.4933 89.5067 0 76.5625 0Z" fill="#F4F2ED"/>
  <g transform="translate(20, 20) scale(2.5)">
    <path fill="#3DDC84" d="M12 12 L21.526 6.5 L12 1 L2.474 6.5 Z"/>
    <path fill="#073042" d="M12 12 L2.474 6.5 V17.5 L12 23 Z"/>
    <path fill="#4285F4" d="M12 12 L21.526 6.5 V17.5 L12 23 Z"/>
    <path fill="#E7F5FF" d="M12 16.4 L15.81 14.2 V9.8 L12 7.6 L8.19 9.8 V14.2 Z"/>
  </g>
</svg>
