<svg width="30" height="30" viewBox="0 0 30 30" fill="none" xmlns="http://www.w3.org/2000/svg">
<path d="M22.9688 0H7.03125C3.148 0 0 3.148 0 7.03125V22.9688C0 26.852 3.148 30 7.03125 30H22.9688C26.852 30 30 26.852 30 22.9688V7.03125C30 3.148 26.852 0 22.9688 0Z" fill="white"/>
<path fill-rule="evenodd" clip-rule="evenodd" d="M25.2945 9.17746C25.302 9.20594 25.3059 9.23535 25.3059 9.265V13.8586C25.3059 13.9176 25.2906 13.9755 25.2615 14.0264C25.2325 14.0773 25.1906 14.1197 25.14 14.1491L21.3377 16.3689V20.7687C21.3379 20.8273 21.3227 20.885 21.2938 20.936C21.2648 20.9869 21.2231 21.0295 21.1726 21.0593L13.2357 25.6923C13.2176 25.7028 13.1978 25.7095 13.178 25.7166C13.1705 25.7192 13.1636 25.7237 13.1557 25.7259C13.1002 25.7406 13.0418 25.7406 12.9864 25.7259C12.9773 25.7233 12.969 25.7182 12.9604 25.715C12.9422 25.7083 12.9232 25.7024 12.9059 25.6923L4.97063 21.0593C4.9201 21.0298 4.87823 20.9875 4.84922 20.9366C4.82004 20.8855 4.80469 20.8276 4.80469 20.7687V6.98781C4.80469 6.95758 4.80879 6.92828 4.81629 6.89992C4.81863 6.89019 4.82449 6.8814 4.82777 6.87179C4.83398 6.85422 4.83973 6.83629 4.84887 6.81988C4.85508 6.80898 4.8641 6.80019 4.8716 6.79023C4.88098 6.77676 4.88977 6.76293 4.9009 6.75121C4.91027 6.7416 4.92281 6.73445 4.93348 6.72613C4.94543 6.71605 4.95621 6.70515 4.9698 6.69718H4.97027L8.93789 4.38074C8.98802 4.35148 9.04502 4.33606 9.10307 4.33606C9.16111 4.33606 9.21811 4.35148 9.26824 4.38074L13.2361 6.69718H13.2369C13.25 6.70562 13.2613 6.71605 13.2732 6.72566C13.2839 6.7341 13.2959 6.7416 13.3054 6.75086C13.317 6.76293 13.3253 6.77676 13.3351 6.79023C13.3421 6.80019 13.3516 6.80898 13.3574 6.81988C13.3669 6.83664 13.3723 6.85422 13.3789 6.87179C13.3822 6.8814 13.388 6.89019 13.3904 6.90027C13.398 6.92886 13.4019 6.95828 13.402 6.98781V15.5952L16.7084 13.6648V9.26441C16.7084 9.23511 16.7125 9.20547 16.72 9.17746C16.7229 9.16738 16.7282 9.15859 16.7316 9.14898C16.7381 9.1314 16.7439 9.11336 16.753 9.09707C16.7592 9.08617 16.7682 9.07738 16.7753 9.0673C16.7852 9.05394 16.7934 9.04011 16.805 9.0284C16.8145 9.01879 16.8265 9.01164 16.8373 9.0032C16.8496 8.99324 16.8604 8.98234 16.8736 8.97437H16.8741L20.8423 6.65781C20.8924 6.62849 20.9493 6.61303 21.0074 6.61303C21.0654 6.61303 21.1224 6.62849 21.1725 6.65781L25.1404 8.97437C25.1544 8.98281 25.1651 8.99312 25.1775 9.00285C25.1878 9.01117 25.1998 9.01879 25.2093 9.02793C25.2209 9.04011 25.2291 9.05394 25.239 9.0673C25.2464 9.07738 25.2555 9.08605 25.2613 9.09707C25.2708 9.11347 25.2762 9.1314 25.2827 9.14898C25.2865 9.15859 25.292 9.16738 25.2945 9.17746ZM24.6445 13.6648V9.84484L23.256 10.6553L21.3377 11.7753V15.5952L24.6449 13.6648H24.6445ZM20.6767 20.5749V16.7525L18.7898 17.8452L13.4017 20.9635V24.8219L20.6767 20.5749ZM5.46609 7.56765V20.5749L12.7403 24.8215V20.9638L8.94012 18.783L8.93894 18.7821L8.93719 18.7813C8.92441 18.7738 8.91375 18.7629 8.90168 18.7537C8.89137 18.7453 8.87941 18.7387 8.87039 18.7294L8.86957 18.7282C8.85879 18.7177 8.85129 18.7048 8.84227 18.693C8.83406 18.6817 8.8241 18.6721 8.81754 18.6604L8.81707 18.6591C8.80957 18.6466 8.805 18.6314 8.79973 18.6173C8.79434 18.6047 8.7873 18.593 8.78402 18.5795V18.5791C8.77992 18.5632 8.7791 18.5465 8.77734 18.5301C8.7757 18.5175 8.77242 18.505 8.77242 18.4925V9.4982L6.85465 8.37777L5.46609 7.56801V7.56765ZM9.10359 5.05808L5.79773 6.98793L9.10277 8.91754L12.4083 6.98746L9.10277 5.0582L9.10359 5.05808ZM10.8229 17.1007L12.7407 15.9812V7.56765L11.3521 8.37824L9.43394 9.49808V17.9118L10.8229 17.1007ZM21.0075 7.33527L17.7019 9.265L21.0075 11.1946L24.3125 9.26453L21.0075 7.33527ZM20.6767 11.7753L18.7584 10.6553L17.37 9.84484V13.6648L19.2878 14.7843L20.6767 15.5952V11.7753ZM13.0706 20.3836L17.919 17.5768L20.3427 16.1743L17.0396 14.2458L13.2366 16.4661L9.77039 18.4895L13.0706 20.3836Z" fill="#FF2D20"/>
</svg>
