<svg width="30" height="30" viewBox="0 0 30 30" fill="none" xmlns="http://www.w3.org/2000/svg">
<path d="M22.9688 0H7.03125C3.148 0 0 3.148 0 7.03125V22.9688C0 26.852 3.148 30 7.03125 30H22.9688C26.852 30 30 26.852 30 22.9688V7.03125C30 3.148 26.852 0 22.9688 0Z" fill="#F4F2ED"/>
<path d="M10.437 17.2449L11.1968 19.7101C11.3675 20.2698 11.4387 20.6605 11.4102 20.8833C11.8257 19.7704 12.116 18.5576 12.2812 17.2449H13.1948C12.802 19.3819 12.2838 20.9349 11.6407 21.9036C11.1396 22.6501 10.5907 23.0234 9.99297 23.0234C9.83359 23.0234 9.63711 22.9752 9.40395 22.8796V22.3645C9.51787 22.3812 9.65151 22.3901 9.80522 22.3901C10.0841 22.3901 10.3088 22.3128 10.4798 22.1586C10.6846 21.9707 10.7871 21.7594 10.7871 21.5253C10.7871 21.3654 10.7071 21.0374 10.548 20.5411L9.4894 17.2449H10.437ZM4.62222 15.7297L6.01382 19.9756H6.02241L7.42256 15.7297H8.5665C8.81699 17.8354 8.96494 19.762 9.01035 21.5083H8.0459C8.01196 19.8759 7.91797 18.3408 7.76426 16.9029H7.75586L6.28721 21.5083H5.55273L4.09297 16.9029H4.08437C3.97607 18.2838 3.90791 19.8189 3.87949 21.5083H3C3.05684 19.4537 3.19907 17.5276 3.42671 15.7297H4.62222Z" fill="#00758F"/>
<path d="M20.2118 15.644C21.7087 15.644 22.4572 16.6003 22.4572 18.5121C22.4572 19.551 22.2321 20.3357 21.7824 20.8658C21.7013 20.9627 21.6117 21.0464 21.5174 21.1239L22.5767 21.6477L22.5757 21.6476L22.1996 22.2971L20.82 21.4922C20.5914 21.5599 20.3397 21.5938 20.0656 21.5938C19.3306 21.5938 18.7815 21.3796 18.4186 20.9517C18.0201 20.4783 17.821 19.7332 17.821 18.7175C17.821 17.6844 18.0457 16.9027 18.4956 16.3719C18.9054 15.8864 19.4775 15.644 20.2118 15.644ZM15.6278 15.6524C16.1628 15.6524 16.6493 15.7955 17.0875 16.0808L16.8649 16.5768C16.49 16.4174 16.1203 16.3374 15.7558 16.3374C15.46 16.3374 15.232 16.4086 15.0731 16.5518C14.9134 16.6938 14.8146 16.8765 14.8146 17.0993C14.8146 17.4416 15.0584 17.7384 15.5086 17.9892C15.6561 18.0698 15.8031 18.1514 15.9496 18.2339L15.9832 18.2528L16 18.2622L16.0337 18.2811L16.0505 18.2906L16.0841 18.3095C16.4249 18.5017 16.7456 18.6851 16.7456 18.6851C17.1958 19.0047 17.4202 19.3454 17.4202 19.9066C17.4202 20.3967 17.2406 20.7989 16.8826 21.1137C16.5244 21.4271 16.0431 21.5843 15.4403 21.5843C14.8766 21.5843 14.3303 21.4034 13.8011 21.0447L14.0486 20.5483C14.5041 20.7766 14.9162 20.8906 15.2862 20.8906C15.6333 20.8906 15.905 20.8131 16.1015 20.6601C16.2977 20.5059 16.4152 20.2909 16.4152 20.0183C16.4152 19.6752 16.1765 19.3819 15.7387 19.1359C15.6016 19.0601 15.465 18.9837 15.3288 18.9065L15.2952 18.8875C15.2336 18.8527 15.1715 18.8175 15.1107 18.7829L15.0778 18.7642C14.7821 18.596 14.5265 18.4491 14.5265 18.4491C14.0888 18.1289 13.8693 17.7854 13.8693 17.2194C13.8693 16.7513 14.033 16.3729 14.3599 16.0851C14.6875 15.7966 15.1102 15.6524 15.6278 15.6524ZM24.2165 15.7297V20.7975H26.0347V21.5083H23.2943V15.7297H24.2165ZM27.0451 20.7997V20.9198H26.8452V21.5077H26.6923V20.9198H26.4847V20.7997H27.0451H27.0451ZM27.4142 20.7997L27.6062 21.2823L27.7825 20.7997H27.9991V21.5077H27.8551V20.9689L27.6544 21.5077H27.5505L27.3495 20.9689H27.3418V21.5077H27.2055V20.7997H27.4143H27.4142ZM20.1177 16.3546C19.2355 16.3546 18.7942 17.0826 18.7942 18.5377C18.7942 19.3712 18.9112 19.9756 19.1446 20.3523C19.3608 20.701 19.6995 20.8749 20.1605 20.8749C21.0427 20.8749 21.4839 20.1412 21.4839 18.6745C21.4839 17.8527 21.367 17.2535 21.1338 16.8766C20.9174 16.5287 20.5789 16.3546 20.1177 16.3546H20.1177Z" fill="#F29111"/>
<path d="M17.8056 6.35806C18.0982 5.63902 19.1214 6.18355 19.5185 6.43472C19.6158 6.49756 19.7274 6.63033 19.839 6.6794C20.013 6.68623 20.187 6.69986 20.3613 6.70713C20.6884 6.78399 20.9947 6.84678 21.2524 6.99356C22.4501 7.69888 23.2297 8.41763 23.9473 9.60484C24.1006 9.8563 24.1772 10.1284 24.3024 10.4005C24.4763 10.8062 24.6716 11.2319 24.8733 11.6155C24.9637 11.7973 25.0335 11.9995 25.159 12.1531C25.208 12.2233 25.3471 12.244 25.4302 12.2859C25.6601 12.4049 25.9386 12.4953 26.1548 12.6349C26.5586 12.8867 26.949 13.1867 27.3039 13.4938C27.4361 13.6124 27.5263 13.7802 27.6523 13.9056V13.9689C27.5404 14.0032 27.429 14.0383 27.3174 14.0665C27.0737 14.1291 26.8578 14.1149 26.6214 14.1776C26.4753 14.22 26.2939 14.2759 26.1407 14.2901L26.1548 14.3043C26.245 14.5619 26.7327 14.7714 26.9557 14.9254C27.2266 15.121 27.4776 15.3581 27.6797 15.6304C27.7495 15.6999 27.8192 15.7631 27.8887 15.8324C27.9372 15.9026 27.9509 15.9934 28 16.056V16.0772C27.9456 16.058 27.9065 16.0214 27.8694 15.9831L27.8473 15.96C27.8252 15.9371 27.8029 15.9145 27.7774 15.8959C27.6237 15.7909 27.4711 15.6653 27.3174 15.5677C27.0531 15.4001 26.7466 15.3027 26.4753 15.1344C26.3219 15.0367 26.1756 14.9254 26.0294 14.8136C25.8968 14.7156 25.7508 14.5274 25.6675 14.3878C25.6185 14.3106 25.6117 14.22 25.5557 14.1642C25.5657 14.071 25.6511 14.0433 25.7373 14.0205L25.7571 14.0153C25.7868 14.0076 25.8159 13.9999 25.8413 13.9897C26.2033 13.8359 26.6349 13.7802 27.1922 13.7941C27.1712 13.6542 26.823 13.4798 26.7118 13.396C26.4887 13.2352 26.2524 13.0674 26.0157 12.921C25.8902 12.8443 25.6741 12.7884 25.5351 12.7257C25.3471 12.6489 24.9291 12.5721 24.8249 12.4257C24.6479 12.1949 24.5208 11.9197 24.3974 11.6417L24.3638 11.5658C24.3526 11.5405 24.3413 11.5152 24.3301 11.4899C24.1842 11.1551 24.0029 10.8061 23.8567 10.4632C23.7802 10.296 23.7451 10.1492 23.6614 9.98882C23.1532 9.00454 22.4011 8.18047 21.4893 7.60093C21.1896 7.41236 20.8555 7.23785 20.4866 7.11924C20.2776 7.05611 20.0267 7.09102 19.804 7.04258H19.6574C19.5323 7.00733 19.4279 6.87471 19.3303 6.80479C19.1147 6.6584 18.8988 6.56011 18.641 6.45567C18.5506 6.41377 18.2927 6.31621 18.2026 6.39302C18.1469 6.40703 18.1186 6.42808 18.1049 6.48404C18.0494 6.56753 18.0982 6.69331 18.1327 6.77032C18.2373 6.99346 18.3834 7.12608 18.516 7.31465C18.634 7.48189 18.7805 7.67046 18.8642 7.8523C19.0446 8.24317 19.1287 8.67622 19.2959 9.06704C19.3579 9.21402 19.456 9.38125 19.5463 9.51382C19.6228 9.61905 19.7619 9.69512 19.804 9.82832C19.8879 9.96797 19.6784 10.4288 19.6299 10.5751C19.4485 11.1477 19.4837 11.9437 19.6926 12.44L19.7037 12.4662L19.7148 12.4927C19.7911 12.6745 19.8728 12.8702 20.0755 12.921C20.0895 12.9072 20.0755 12.9145 20.1032 12.9072C20.1523 12.523 20.1661 12.153 20.2985 11.8524C20.375 11.6645 20.5278 11.5316 20.6326 11.3782C20.7024 11.42 20.7024 11.546 20.744 11.6294C20.8346 11.8458 20.9319 12.0829 21.0437 12.2999C21.2729 12.7466 21.531 13.1798 21.8233 13.5706C21.9212 13.7102 22.0601 13.8639 22.1854 13.9896C22.2412 14.0383 22.3037 14.0664 22.3457 14.1291H22.3593V14.1501C22.1504 14.0731 22.018 13.857 21.8514 13.7309C21.5377 13.4937 21.1621 13.1376 20.9459 12.7958C20.8555 12.5996 20.7577 12.4116 20.6603 12.2164V12.2022C20.6186 12.258 20.6326 12.3134 20.6117 12.3978C20.5213 12.7466 20.5909 13.1446 20.2776 13.2701C19.9224 13.4171 19.6575 13.033 19.5463 12.8584C19.191 12.279 19.0937 11.3016 19.3442 10.5126C19.3999 10.3379 19.4075 10.1284 19.5046 9.98897C19.4836 9.86289 19.3865 9.82842 19.3303 9.75117C19.2328 9.61914 19.1494 9.46534 19.073 9.3187C18.9265 9.03228 18.8222 8.69004 18.7109 8.38286C18.662 8.25743 18.6479 8.1315 18.5992 8.01275C18.516 7.8315 18.3626 7.64966 18.2443 7.48931C18.0841 7.25884 17.6175 6.81216 17.8056 6.35806ZM20.0894 7.72598C20.108 7.74463 20.1304 7.76094 20.1537 7.77701L20.1817 7.79624C20.219 7.82212 20.2552 7.84937 20.2774 7.88648C20.3125 7.9356 20.3191 7.98409 20.3612 8.0333C20.3612 8.20113 20.3125 8.3127 20.2144 8.38223C20.2144 8.38223 20.2077 8.38955 20.2008 8.39639C20.1451 8.28452 20.0963 8.17325 20.0403 8.06148C19.9712 7.96392 19.8736 7.88653 19.8174 7.77505H19.8039V7.76104C19.8879 7.74029 19.9712 7.72598 20.0894 7.72598Z" fill="#00758F"/>
</svg>
