<svg width="30" height="30" viewBox="0 0 30 30" fill="none" xmlns="http://www.w3.org/2000/svg">
<rect width="30" height="30" rx="6" fill="white"/>
<path d="M14.2124 3.00633C14.1608 3.01101 13.9965 3.02745 13.8487 3.03908C10.4405 3.34636 7.24799 5.18546 5.22592 8.01201C4.10012 9.58366 3.37987 11.3664 3.10786 13.2548C3.01176 13.914 3 14.1087 3 15.0023C3 15.8961 3.01176 16.0908 3.10798 16.7499C3.75997 21.2559 6.96663 25.042 11.3155 26.4447C12.0943 26.6957 12.9153 26.8669 13.8488 26.9701C14.2125 27.01 15.784 27.01 16.1477 26.9701C17.7592 26.7918 19.1244 26.3931 20.4708 25.7057C20.6772 25.6003 20.7171 25.5721 20.6889 25.5487C20.6702 25.5345 19.7905 24.3546 18.735 22.9285L16.8163 20.3365L14.4118 16.7781C13.0889 14.8218 12.0005 13.2219 11.991 13.2219C11.9817 13.2196 11.9723 14.8006 11.9676 16.7312C11.9606 20.1113 11.9583 20.2474 11.916 20.327C11.8551 20.442 11.8082 20.4889 11.7095 20.5406C11.6346 20.578 11.5688 20.5851 11.2146 20.5851H10.8088L10.7009 20.5171C10.634 20.4752 10.5797 20.4161 10.5437 20.3459L10.4945 20.2403L10.4993 15.5372L10.5062 10.8317L10.579 10.7402C10.6165 10.691 10.6963 10.6276 10.7526 10.5972C10.8487 10.5502 10.8862 10.5456 11.292 10.5456C11.7706 10.5456 11.8503 10.5643 11.9747 10.7003C12.0099 10.7379 13.3117 12.6989 14.8693 15.061C16.4462 17.4519 18.024 19.8421 19.6029 22.2318L21.5029 25.11L21.5991 25.0467C22.4505 24.4931 23.3514 23.7049 24.0644 22.8839C25.5821 21.141 26.5603 19.0159 26.8887 16.7499C26.9848 16.0908 26.9965 15.8961 26.9965 15.0023C26.9965 14.1087 26.9848 13.914 26.8887 13.2548C26.2366 8.7487 23.0299 4.96277 18.681 3.56005C17.914 3.31132 17.0977 3.14011 16.1829 3.03692C15.9577 3.01341 14.4071 2.98773 14.2125 3.00645L14.2124 3.00633ZM19.1242 10.264C19.2368 10.3202 19.3283 10.4281 19.3612 10.5406C19.3799 10.6017 19.3846 11.9059 19.3799 14.845L19.3728 19.0627L18.6293 17.9226L17.8834 16.7826V13.7168C17.8834 11.7347 17.8927 10.6204 17.9068 10.5664C17.9443 10.4352 18.0264 10.332 18.1391 10.2709C18.2352 10.2217 18.2704 10.2169 18.6387 10.2169C18.9859 10.2169 19.0469 10.2217 19.1242 10.264Z" fill="black"/>
</svg>
