<svg width="100" height="100" viewBox="0 0 100 100" fill="none" xmlns="http://www.w3.org/2000/svg">
<path d="M76.5625 0H23.4375C10.4933 0 0 10.4933 0 23.4375V76.5625C0 89.5067 10.4933 100 23.4375 100H76.5625C89.5067 100 100 89.5067 100 76.5625V23.4375C100 10.4933 89.5067 0 76.5625 0Z" fill="#F4F2ED"/>
<path d="M50.093 72.9256C49.8388 72.9256 49.6015 72.8579 49.381 72.7392L47.1264 71.4C46.7872 71.2134 46.9568 71.1456 47.0586 71.1118C47.5163 70.9592 47.601 70.9252 48.0757 70.6541C48.1266 70.6201 48.1945 70.6371 48.2453 70.671L49.9745 71.7051C50.0423 71.739 50.1271 71.739 50.1778 71.7051L56.9421 67.7889C57.0099 67.7551 57.0439 67.6871 57.0439 67.6025V59.7872C57.0439 59.7023 57.0099 59.6347 56.9421 59.6007L50.1778 55.7015C50.1101 55.6675 50.0253 55.6675 49.9745 55.7015L43.2102 59.6007C43.1425 59.6346 43.1084 59.7193 43.1084 59.7871V67.6024C43.1084 67.6703 43.1425 67.7549 43.2102 67.7889L45.0582 68.8569C46.0584 69.3655 46.6856 68.7722 46.6856 68.1788V60.4652C46.6856 60.3636 46.7704 60.2618 46.889 60.2618H47.7536C47.8554 60.2618 47.957 60.3465 47.957 60.4652V68.1788C47.957 69.518 47.228 70.298 45.9566 70.298C45.5667 70.298 45.2616 70.298 44.3969 69.874L42.6169 68.8569C42.1761 68.6027 41.9049 68.1279 41.9049 67.6194V59.8041C41.9049 59.2956 42.1761 58.8208 42.6169 58.5666L49.381 54.6504C49.805 54.4131 50.3814 54.4131 50.8052 54.6504L57.5693 58.5666C58.0101 58.8208 58.2815 59.2956 58.2815 59.8041V67.6194C58.2815 68.1279 58.0101 68.6027 57.5693 68.8569L50.8052 72.7731C50.5847 72.8749 50.3304 72.9256 50.093 72.9256ZM52.1783 67.5516C49.2116 67.5516 48.6013 66.1954 48.6013 65.0426C48.6013 64.9408 48.6861 64.8392 48.8047 64.8392H49.6863C49.7879 64.8392 49.8727 64.9069 49.8727 65.0087C50.0084 65.9072 50.3983 66.3479 52.1953 66.3479C53.6193 66.3479 54.2298 66.0258 54.2298 65.2629C54.2298 64.8221 54.0601 64.5002 51.8393 64.2797C49.9914 64.0931 48.8386 63.6864 48.8386 62.2115C48.8386 60.8382 49.9915 60.0244 51.9241 60.0244C54.094 60.0244 55.1621 60.7705 55.2978 62.3978C55.2978 62.4488 55.2808 62.4996 55.2469 62.5505C55.2129 62.5843 55.1621 62.6182 55.1112 62.6182H54.2296C54.1449 62.6182 54.0601 62.5505 54.0432 62.4657C53.8398 61.5334 53.3142 61.2281 51.9241 61.2281C50.3644 61.2281 50.1778 61.7707 50.1778 62.1774C50.1778 62.6691 50.3983 62.8217 52.5004 63.0929C54.5856 63.3643 55.569 63.7541 55.569 65.212C55.552 66.7039 54.3314 67.5516 52.1783 67.5516Z" fill="#539E43"/>
<path d="M29.1053 42.3595C29.1053 42.0544 28.9358 41.766 28.6646 41.6135L21.4765 37.477C21.3577 37.4091 21.2222 37.3752 21.0866 37.3582H21.0187C20.8832 37.3582 20.7475 37.4091 20.6288 37.477L13.4408 41.6135C13.1694 41.766 13 42.0542 13 42.3595L13.017 53.4806C13.017 53.6331 13.1018 53.7857 13.2373 53.8536C13.373 53.9384 13.5424 53.9384 13.6612 53.8536L17.9334 51.4123C18.2046 51.2598 18.3742 50.9715 18.3742 50.6664V45.4618C18.3742 45.1567 18.5436 44.8685 18.815 44.716L20.6288 43.6648C20.7645 43.58 20.9171 43.546 21.0696 43.546C21.2222 43.546 21.3747 43.58 21.4935 43.6648L23.3074 44.716C23.5788 44.8685 23.7482 45.1566 23.7482 45.4618V50.6664C23.7482 50.9715 23.9178 51.2598 24.189 51.4123L28.4611 53.8536C28.5271 53.8951 28.6035 53.9172 28.6815 53.9172C28.7595 53.9172 28.8359 53.8951 28.9019 53.8536C29.0376 53.7857 29.1224 53.6331 29.1224 53.4806L29.1053 42.3595ZM63.6555 27.0509C63.5199 26.983 63.3504 26.983 63.2316 27.0509C63.096 27.1357 63.0112 27.2713 63.0112 27.4238V38.4434C63.0112 38.545 62.9605 38.6467 62.8587 38.7146C62.757 38.7653 62.6552 38.7653 62.5536 38.7146L60.7566 37.6805C60.6248 37.6054 60.4758 37.566 60.3242 37.566C60.1726 37.566 60.0236 37.6054 59.8919 37.6805L52.7038 41.8339C52.4326 41.9865 52.2631 42.2747 52.2631 42.5798V50.8697C52.2631 51.1748 52.4326 51.4632 52.7038 51.6158L59.8919 55.7692C60.0236 55.8443 60.1726 55.8837 60.3242 55.8837C60.4758 55.8837 60.6248 55.8443 60.7566 55.7692L67.9446 51.6158C68.2159 51.4632 68.3854 51.175 68.3854 50.8697V30.2042C68.3854 29.8821 68.2159 29.594 67.9446 29.4413L63.6555 27.0509ZM62.9944 48.1404C62.9944 48.2252 62.9605 48.293 62.8926 48.3268L60.4345 49.7508C60.4001 49.7676 60.3624 49.7763 60.3242 49.7763C60.286 49.7763 60.2483 49.7676 60.214 49.7508L57.7559 48.3268C57.688 48.293 57.6541 48.2082 57.6541 48.1404V45.2923C57.6541 45.2075 57.688 45.1397 57.7559 45.1058L60.214 43.6817C60.2483 43.6649 60.286 43.6562 60.3242 43.6562C60.3624 43.6562 60.4001 43.6649 60.4345 43.6817L62.8926 45.1058C62.9605 45.1396 62.9944 45.2245 62.9944 45.2923V48.1404ZM87.5761 45.2245C87.8475 45.072 88 44.7837 88 44.4785V42.4611C88 42.156 87.8304 41.8678 87.5761 41.7153L80.4389 37.5788C80.3072 37.5038 80.1582 37.4643 80.0066 37.4643C79.855 37.4643 79.706 37.5038 79.5742 37.5788L72.3862 41.7321C72.1148 41.8847 71.9454 42.1729 71.9454 42.478V50.7681C71.9454 51.0732 72.115 51.3614 72.3862 51.514L79.5233 55.5827C79.7947 55.7352 80.1168 55.7352 80.3712 55.5827L84.6941 53.1756C84.8297 53.1077 84.9145 52.9551 84.9145 52.8026C84.9145 52.65 84.8297 52.4975 84.6941 52.4296L77.4721 48.2761C77.3365 48.1913 77.2517 48.0558 77.2517 47.9032V45.3094C77.2517 45.1569 77.3365 45.0043 77.4721 44.9364L79.7268 43.648C79.7928 43.6064 79.8692 43.5844 79.9472 43.5844C80.0252 43.5844 80.1016 43.6064 80.1676 43.648L82.4224 44.9364C82.5581 45.0212 82.6427 45.1567 82.6427 45.3094V47.3438C82.6427 47.4963 82.7275 47.6489 82.8632 47.7166C82.9292 47.7582 83.0056 47.7803 83.0836 47.7803C83.1616 47.7803 83.238 47.7582 83.304 47.7166L87.5761 45.2245Z" fill="#333333"/>
<path d="M79.8964 44.8345C79.9215 44.8179 79.951 44.8091 79.9811 44.8091C80.0113 44.8091 80.0408 44.8179 80.0659 44.8345L81.4392 45.6313C81.4899 45.6653 81.5238 45.7161 81.5238 45.7839V47.3776C81.5238 47.4453 81.4901 47.4962 81.4392 47.5301L80.0659 48.3269C80.0408 48.3435 80.0113 48.3523 79.9811 48.3523C79.951 48.3523 79.9215 48.3435 79.8964 48.3269L78.5233 47.5301C78.4724 47.4962 78.4385 47.4453 78.4385 47.3776V45.784C78.4385 45.7161 78.4722 45.6652 78.5233 45.6314L79.8964 44.8345Z" fill="#539E43"/>
<path d="M41.125 37.6127C40.9932 37.5377 40.8443 37.4983 40.6927 37.4983C40.5411 37.4983 40.3921 37.5377 40.2604 37.6127L33.1233 41.732C32.8519 41.8846 32.6993 42.1728 32.6993 42.4779V50.7341C32.6993 51.0392 32.8689 51.3274 33.1233 51.48L40.2604 55.5996C40.3921 55.6745 40.5411 55.714 40.6927 55.714C40.8443 55.714 40.9932 55.6745 41.125 55.5996L48.2623 51.48C48.5335 51.3274 48.6862 51.0392 48.6862 50.7341V42.478C48.6862 42.1729 48.5165 41.8847 48.2623 41.7322L41.125 37.6127Z" fill="url(#paint0_linear_164_73)"/>
<defs>
<linearGradient id="paint0_linear_164_73" x1="1122.81" y1="356.036" x2="340.508" y2="1585.26" gradientUnits="userSpaceOnUse">
<stop stop-color="#41873F"/>
<stop offset="0.3288" stop-color="#418B3D"/>
<stop offset="0.6352" stop-color="#419637"/>
<stop offset="0.9319" stop-color="#3FA92D"/>
<stop offset="1" stop-color="#3FAE2A"/>
</linearGradient>
</defs>
</svg>
