<svg width="100" height="100" viewBox="0 0 100 100" fill="none" xmlns="http://www.w3.org/2000/svg">
<path d="M76.5625 0H23.4375C10.4933 0 0 10.4933 0 23.4375V76.5625C0 89.5067 10.4933 100 23.4375 100H76.5625C89.5067 100 100 89.5067 100 76.5625V23.4375C100 10.4933 89.5067 0 76.5625 0Z" fill="#F4F2ED"/>
<path d="M12 49.7268C12 60.6211 28.7895 69.4535 49.5 69.4535C70.2105 69.4535 87 60.6211 87 49.7268C87 38.8324 70.21 30 49.5 30C28.7895 30 12 38.8324 12 49.7268Z" fill="url(#paint0_radial_164_39)"/>
<path d="M49.5 67.9887C69.4014 67.9887 85.5352 59.8119 85.5352 49.7268C85.5352 39.6404 69.4014 31.4648 49.5 31.4648C29.5986 31.4648 13.4648 39.6404 13.4648 49.7268C13.4648 59.8119 29.5986 67.9887 49.5 67.9887Z" fill="#777BB3"/>
<path d="M32.3743 51.9906C34.0108 51.9906 35.2319 51.6889 36.0047 51.0941C36.77 50.5047 37.2979 49.4846 37.575 48.0619C37.8328 46.7318 37.7344 45.8037 37.2821 45.3022C36.8203 44.79 35.8213 44.5305 34.3131 44.5305H31.6975L30.2485 51.9906H32.3743ZM23.8202 61.1799C23.7601 61.1798 23.7009 61.1664 23.6467 61.1408C23.5924 61.1151 23.5445 61.0777 23.5065 61.0313C23.4684 60.9849 23.441 60.9307 23.4264 60.8725C23.4117 60.8143 23.4101 60.7536 23.4217 60.6947L27.2637 40.9264C27.2819 40.834 27.3315 40.7507 27.4041 40.6908C27.4768 40.6308 27.568 40.5979 27.6621 40.5977H35.9438C38.5465 40.5977 40.4836 41.3043 41.7018 42.6982C42.9252 44.0986 43.3037 46.058 42.825 48.5195C42.6299 49.5221 42.2948 50.4531 41.8289 51.2875C41.344 52.1457 40.7253 52.9211 39.9961 53.5844C39.0991 54.4234 38.0836 55.0328 36.9803 55.3908C35.8952 55.7447 34.5006 55.924 32.8377 55.924H29.4838L28.5264 60.8506C28.5083 60.9433 28.4586 61.0269 28.3857 61.0869C28.3128 61.147 28.2213 61.1799 28.1268 61.1799H23.8202Z" fill="black"/>
<path d="M32.0333 44.9374H34.3132C36.1337 44.9374 36.7659 45.337 36.9809 45.5754C37.3366 45.9704 37.4046 46.8042 37.1749 47.9848C36.9176 49.3073 36.4407 50.2454 35.7569 50.7715C35.0573 51.3106 33.9182 51.5836 32.3743 51.5836H30.7419L32.0339 44.9379L32.0333 44.9374ZM35.9438 40.1913H27.6628C27.4739 40.1913 27.2909 40.2569 27.1452 40.3769C26.9994 40.497 26.8998 40.6639 26.8635 40.8493L23.0215 60.6182C22.9989 60.736 23.0025 60.8573 23.0321 60.9735C23.0617 61.0897 23.1166 61.1979 23.1929 61.2905C23.2692 61.383 23.365 61.4575 23.4734 61.5087C23.5819 61.56 23.7003 61.5866 23.8202 61.5868H28.1268C28.3156 61.5866 28.4985 61.5208 28.6442 61.4007C28.7899 61.2805 28.8893 61.1135 28.9255 60.9282L29.819 56.3309H32.8372C34.5434 56.3309 35.9801 56.1446 37.1069 55.7778C38.2653 55.4016 39.3311 54.7635 40.2745 53.8811C41.034 53.1892 41.6786 52.3809 42.184 51.4864C42.671 50.6151 43.0214 49.6424 43.2241 48.5971C43.728 46.0055 43.3184 43.9307 42.0077 42.4307C40.7092 40.9442 38.669 40.1907 35.9438 40.1907V40.1913ZM29.7546 52.3969H32.3743C34.1104 52.3969 35.4036 52.0706 36.2532 51.4155C37.1034 50.7616 37.6758 49.6694 37.9747 48.1395C38.2589 46.67 38.1294 45.6334 37.585 45.0293C37.0395 44.4258 35.9497 44.1235 34.3132 44.1235H31.3624L29.7546 52.3969ZM35.9444 41.0034C38.4358 41.0034 40.2528 41.6579 41.3954 42.9651C42.538 44.2729 42.8813 46.0981 42.4266 48.4413C42.238 49.4069 41.921 50.2893 41.4745 51.0885C41.0268 51.8889 40.4432 52.6202 39.7219 53.284C38.8618 54.0885 37.9073 54.6622 36.8555 55.0038C35.8044 55.3459 34.4649 55.5165 32.8378 55.5165H29.1487L28.1274 60.7723H23.8208L27.6633 41.0034H35.9444Z" fill="white"/>
<path d="M52.6987 55.924C52.6387 55.9241 52.5793 55.9109 52.525 55.8853C52.4707 55.8597 52.4227 55.8224 52.3845 55.7761C52.3463 55.7298 52.3188 55.6756 52.304 55.6174C52.2893 55.5591 52.2876 55.4984 52.2991 55.4395L53.9983 46.6926C54.1606 45.8605 54.1208 45.2641 53.887 45.0109C53.7434 44.8568 53.3134 44.5984 52.0413 44.5984H48.9616L46.8253 55.5953C46.8069 55.6879 46.757 55.7713 46.684 55.8311C46.611 55.891 46.5195 55.9236 46.4251 55.9234H42.1536C42.0936 55.9235 42.0343 55.9103 41.98 55.8847C41.9257 55.8592 41.8777 55.822 41.8395 55.7757C41.8012 55.7295 41.7737 55.6753 41.7588 55.6172C41.7439 55.5591 41.7421 55.4984 41.7534 55.4395L45.596 35.6705C45.6142 35.5779 45.664 35.4945 45.7369 35.4345C45.8097 35.3746 45.9012 35.3418 45.9956 35.3418H50.2671C50.3271 35.3418 50.3863 35.355 50.4406 35.3805C50.4949 35.4061 50.5429 35.4433 50.5812 35.4895C50.6194 35.5358 50.647 35.5899 50.6618 35.648C50.6767 35.7061 50.6786 35.7669 50.6673 35.8258L49.7403 40.5977H53.0526C55.5762 40.5977 57.2872 41.0418 58.2839 41.9576C59.2993 42.891 59.6169 44.3834 59.226 46.3949L57.4384 55.5953C57.42 55.6878 57.3702 55.7711 57.2973 55.8309C57.2244 55.8908 57.133 55.9235 57.0387 55.9234H52.6987V55.924Z" fill="black"/>
<path d="M50.2676 34.9346H45.9955C45.8066 34.9346 45.6235 35.0003 45.4777 35.1205C45.3319 35.2406 45.2324 35.4077 45.1963 35.5932L41.3543 55.3615C41.3315 55.4793 41.335 55.6007 41.3646 55.717C41.3942 55.8333 41.4491 55.9416 41.5254 56.0342C41.6017 56.1268 41.6975 56.2013 41.806 56.2526C41.9145 56.3039 42.033 56.3305 42.1529 56.3307H46.425C46.6139 56.3306 46.797 56.2649 46.9428 56.1448C47.0886 56.0246 47.1881 55.8575 47.2242 55.6721L49.2967 45.0051H52.04C53.3104 45.0051 53.5775 45.2764 53.5875 45.2887C53.6648 45.3707 53.7662 45.7545 53.5986 46.6152L51.8994 55.3615C51.8766 55.4794 51.8802 55.6008 51.9098 55.7171C51.9394 55.8334 51.9943 55.9418 52.0707 56.0344C52.1471 56.127 52.243 56.2016 52.3515 56.2528C52.4601 56.304 52.5786 56.3306 52.6986 56.3307H57.0393C57.2281 56.3305 57.411 56.2647 57.5567 56.1446C57.7023 56.0244 57.8018 55.8574 57.8379 55.6721L59.6256 46.4729C60.0445 44.3131 59.6859 42.6936 58.5592 41.6582C57.4834 40.6703 55.6822 40.1904 53.0525 40.1904H50.2342L51.0668 35.9043C51.0897 35.7864 51.0862 35.6649 51.0567 35.5485C51.0271 35.4321 50.9722 35.3237 50.8958 35.231C50.8194 35.1384 50.7235 35.0637 50.6149 35.0125C50.5063 34.9612 50.3877 34.9346 50.2676 34.9346ZM50.2676 35.749L49.2463 41.0037H53.0525C55.4473 41.0037 57.0996 41.4221 58.0078 42.2576C58.9178 43.0932 59.1897 44.4461 58.827 46.3182L57.0387 55.5168H52.6986L54.3984 46.7699C54.5918 45.775 54.5203 45.0965 54.1846 44.7344C53.8488 44.3729 53.134 44.1918 52.0412 44.1918H48.6258L46.425 55.5162H42.1523L45.9949 35.7473H50.2676V35.749Z" fill="white"/>
<path d="M65.986 51.9906C67.6225 51.9906 68.8442 51.6889 69.6176 51.0941C70.3817 50.5047 70.9102 49.4846 71.1873 48.0619C71.4451 46.7318 71.3473 45.8037 70.8944 45.3022C70.4327 44.79 69.4336 44.5305 67.9254 44.5305H65.3104L63.8602 51.9906H65.986ZM57.4336 61.1799C57.3735 61.18 57.3141 61.1667 57.2598 61.1411C57.2054 61.1155 57.1573 61.0782 57.1191 61.0318C57.0809 60.9854 57.0535 60.9311 57.0387 60.8728C57.024 60.8145 57.0224 60.7537 57.034 60.6947L60.876 40.9264C60.8942 40.8338 60.944 40.7503 61.0169 40.6904C61.0898 40.6304 61.1812 40.5977 61.2756 40.5977H69.5567C72.1594 40.5977 74.0965 41.3043 75.3141 42.6982C76.5381 44.0986 76.916 46.058 76.4373 48.5195C76.2544 49.4891 75.9184 50.4235 75.4418 51.2875C74.9568 52.1456 74.3381 52.9209 73.609 53.5844C72.7125 54.4234 71.6959 55.0328 70.5932 55.3908C69.508 55.7447 68.1135 55.924 66.45 55.924H63.0967L62.1399 60.8506C62.1218 60.9434 62.0719 61.027 61.9989 61.0871C61.9259 61.1472 61.8342 61.18 61.7397 61.1799H57.4336Z" fill="black"/>
<path d="M65.6454 44.9374H67.9253C69.7458 44.9374 70.3781 45.337 70.5925 45.5754C70.9499 45.9704 71.0167 46.8042 70.7876 47.9848C70.5298 49.3073 70.0529 50.2454 69.3691 50.7715C68.6689 51.3106 67.5298 51.5836 65.9865 51.5836H64.354L65.6454 44.9374ZM69.556 40.1913H61.2749C61.0862 40.1914 60.9034 40.2571 60.7577 40.3771C60.612 40.4972 60.5126 40.664 60.4763 40.8493L56.6337 60.6182C56.611 60.736 56.6146 60.8574 56.6443 60.9736C56.6739 61.0899 56.7289 61.1981 56.8053 61.2907C56.8816 61.3832 56.9775 61.4577 57.086 61.5089C57.1945 61.5601 57.313 61.5867 57.4329 61.5868H61.7396C61.9284 61.5866 62.1113 61.5208 62.257 61.4007C62.4027 61.2805 62.5021 61.1135 62.5382 60.9282L63.4318 56.3309H66.4494C68.155 56.3309 69.5923 56.1446 70.7185 55.7778C71.8775 55.4016 72.9433 54.7635 73.8872 53.8805C74.6466 53.1888 75.291 52.3807 75.7962 51.4864C76.2837 50.6151 76.6329 49.6424 76.8363 48.5971C77.3402 46.0055 76.9312 43.9307 75.6199 42.4307C74.3214 40.9442 72.2818 40.1907 69.5554 40.1907L69.556 40.1913ZM63.3667 52.3969H65.9859C67.7226 52.3969 69.0152 52.0706 69.866 51.4155C70.7156 50.7616 71.2886 49.6694 71.5863 48.1395C71.8716 46.67 71.7421 45.6334 71.1966 45.0293C70.6517 44.4258 69.5613 44.1235 67.9253 44.1235H64.9751L63.3667 52.3969ZM69.556 41.0034C72.0468 41.0034 73.865 41.6579 75.007 42.9651C76.1495 44.2729 76.4935 46.0981 76.0376 48.4413C75.8501 49.4069 75.5326 50.2893 75.0861 51.0885C74.639 51.8889 74.0548 52.6202 73.333 53.284C72.4734 54.0885 71.5183 54.6622 70.4665 55.0038C69.416 55.3459 68.0771 55.5165 66.4494 55.5165H62.7609L61.7384 60.7723H57.4318L61.2744 41.0034H69.556Z" fill="white"/>
<defs>
<radialGradient id="paint0_radial_164_39" cx="0" cy="0" r="1" gradientUnits="userSpaceOnUse" gradientTransform="translate(34.5152 36.9352) scale(49.243 49.243)">
<stop stop-color="#AEB2D5"/>
<stop offset="0.3" stop-color="#AEB2D5"/>
<stop offset="0.75" stop-color="#484C89"/>
<stop offset="1" stop-color="#484C89"/>
</radialGradient>
</defs>
</svg>
