<svg width="100" height="100" viewBox="0 0 100 100" fill="none" xmlns="http://www.w3.org/2000/svg">
<path d="M76.5625 0H23.4375C10.4933 0 0 10.4933 0 23.4375V76.5625C0 89.5067 10.4933 100 23.4375 100H76.5625C89.5067 100 100 89.5067 100 76.5625V23.4375C100 10.4933 89.5067 0 76.5625 0Z" fill="#F4F2ED"/>
<path d="M63.1854 57.3083C63.5744 54.0692 63.4581 53.594 65.8705 54.1185L66.4829 54.1726C68.3382 54.257 70.7654 53.8741 72.1904 53.2118C75.2595 51.788 77.0791 49.4095 74.0531 50.0343C67.1496 51.458 66.675 49.1214 66.675 49.1214C73.965 38.3054 77.0127 24.576 74.3824 21.2151C67.2087 12.0482 54.7904 16.383 54.5824 16.4956L54.5159 16.5085C53.1518 16.2248 51.6258 16.0561 49.9109 16.0284C46.787 15.9773 44.4164 16.8477 42.6184 18.2112C42.6184 18.2112 20.4651 9.08432 21.4956 29.6889C21.7147 34.0722 27.7785 62.8563 35.0107 54.1622C37.6539 50.9834 40.2085 48.2953 40.2085 48.2953C41.4772 49.138 42.9957 49.5677 44.5888 49.4132L44.7119 49.3085C44.6737 49.7031 44.6904 50.089 44.7618 50.5458C42.8985 52.6282 43.4463 52.9938 39.721 53.7602C35.9525 54.537 38.1667 55.9196 39.6114 56.2809C41.3645 56.7198 45.418 57.3409 48.1578 53.5054L48.0488 53.943C48.7801 54.5278 48.7303 58.1454 48.8337 60.7302C48.9371 63.3149 49.1107 65.7266 49.6376 67.1498C50.1645 68.5718 50.7862 72.2349 55.6818 71.186C59.7727 70.3082 62.9004 69.0463 63.1854 57.3083Z" fill="black"/>
<path d="M54.0875 73.7406C51.922 73.7406 50.5124 72.9035 49.6555 72.0946C48.3628 70.8752 47.8501 69.3037 47.5441 68.365L47.4118 67.9729C46.795 66.3078 46.5863 63.9108 46.4626 60.8244C46.4444 60.3419 46.429 59.8593 46.4164 59.3766C46.406 59.0067 46.3931 58.5425 46.3746 58.0556C45.5945 58.4277 44.7664 58.6895 43.9142 58.8337C42.3876 59.0947 40.7465 59.0097 39.0353 58.5819C37.8282 58.2803 36.5737 57.6549 35.859 56.6885C33.7754 58.5136 31.7877 58.2655 30.705 57.9048C28.7949 57.2677 27.0855 55.4783 25.4783 52.4325C24.3339 50.2639 23.2266 47.4373 22.1869 44.0326C20.3771 38.103 19.2273 31.8575 19.1251 29.8077C18.8038 23.3893 20.531 18.7997 24.2588 16.167C30.1405 12.0126 39.0507 14.4551 42.299 15.5643C44.4811 14.2489 47.0486 13.6081 49.9504 13.6549C51.5089 13.6801 52.9924 13.8174 54.3707 14.0624C55.808 13.6106 58.6482 12.9618 61.8989 13.0018C67.8883 13.0732 72.8515 15.4074 76.2513 19.752C78.6772 22.8519 77.4781 29.3608 76.5467 32.9655C75.2374 38.0346 72.942 43.4275 70.1228 48.1218C70.8885 48.1273 71.9971 48.035 73.5742 47.71C76.6852 47.0673 77.5944 48.7355 77.8412 49.4821C78.8304 52.4781 74.5308 54.7415 73.1895 55.3638C71.4708 56.1622 68.6694 56.6478 66.3747 56.5426L66.2743 56.5358L65.6717 56.4829L65.612 56.9852L65.5547 57.477C65.4008 63.4257 64.5508 67.1929 62.802 69.6829C60.9694 72.2922 58.4217 73.0241 56.1779 73.5049C55.4914 73.6572 54.7907 73.7362 54.0875 73.7406ZM49.5312 52.089C50.9291 53.2075 51.0516 55.3121 51.1605 59.2455C51.1741 59.7361 51.187 60.2008 51.2042 60.6348C51.2572 61.9484 51.3809 65.025 51.8623 66.325C51.9306 66.5084 51.9915 66.6956 52.0556 66.8926C52.5923 68.5373 52.8619 69.3616 55.1832 68.8642C57.1327 68.4468 58.1342 68.072 58.9184 66.9553C60.0584 65.3315 60.6961 62.0672 60.8131 57.2499L63.1842 57.3077L60.8291 57.0252L60.898 56.4373C61.124 54.4995 61.2865 53.0985 62.5822 52.1727C63.6213 51.4298 64.8062 51.5018 65.7499 51.6717C64.7133 50.8893 64.4264 49.9697 64.3501 49.5929L64.1525 48.6191L64.7077 47.7943C67.9086 43.0446 70.5487 37.2073 71.951 31.7787C73.3914 26.2005 72.9519 23.2379 72.513 22.6777C66.6984 15.2473 56.6138 18.3146 55.5612 18.6637L55.3826 18.7597L54.4901 18.9265L54.0327 18.8317C52.7727 18.5701 51.3729 18.4254 49.8716 18.4008C47.5134 18.3614 45.6113 18.9185 44.0515 20.1022L42.9693 20.9228L41.713 20.4051C39.0304 19.3081 31.1488 17.1026 26.9901 20.048C24.6817 21.683 23.6304 24.8869 23.8643 29.5707C23.9412 31.117 24.9926 36.9703 26.7248 42.6482C29.1199 50.4941 31.2965 53.0998 32.2051 53.4032C32.3633 53.4568 32.7751 53.1367 33.1844 52.6455C35.8473 49.4427 38.3797 46.7731 38.4862 46.6604L39.8595 45.2157L41.5197 46.3188C42.1888 46.7638 42.9268 47.0156 43.6852 47.063L47.6451 43.6861L47.0714 49.54C47.0585 49.6717 47.0523 49.8502 47.104 50.1826L47.2764 51.2925L46.5297 52.1284L46.4435 52.2251L48.6189 53.2297L49.5312 52.089Z" fill="black"/>
<path d="M74.0549 50.0341C67.1508 51.4578 66.6762 49.1206 66.6762 49.1206C73.9657 38.3046 77.0127 24.5746 74.383 21.2143C67.2087 12.0474 54.7904 16.3828 54.583 16.4954L54.5159 16.5071C53.1518 16.2246 51.6259 16.0559 49.9103 16.0282C46.7863 15.9771 44.4164 16.8469 42.6184 18.2104C42.6184 18.2104 20.4645 9.08412 21.4949 29.6887C21.7141 34.072 27.7779 62.8561 35.0101 54.162C37.6533 50.9832 40.2073 48.2951 40.2073 48.2951C41.4759 49.1378 42.9945 49.5675 44.587 49.413L44.7107 49.3083C44.6725 49.7029 44.6898 50.0888 44.7599 50.5456C42.8973 52.628 43.4439 52.9937 39.7197 53.76C35.9507 54.5369 38.1648 55.9194 39.6108 56.2807C41.3633 56.7196 45.4173 57.3407 48.1566 53.5052L48.047 53.9428C48.7771 54.5276 49.2898 57.7464 49.2036 60.6641C49.1175 63.5819 49.0602 65.5849 49.6358 67.1496C50.2113 68.7138 50.7844 72.2347 55.6805 71.1858C59.7715 70.3087 61.8915 68.0366 62.187 64.2473C62.3963 61.553 62.8696 61.9512 62.8998 59.542L63.2802 58.4013C63.7179 54.7486 63.3498 53.5704 65.8705 54.1189L66.4829 54.1725C68.3382 54.2574 70.766 53.8739 72.191 53.2116C75.2602 51.7872 77.0804 49.4093 74.0549 50.0341Z" fill="#336791"/>
<path d="M54.335 72.278C50.2533 72.2787 48.9606 69.0464 48.4312 67.7248C47.6575 65.7882 47.49 58.271 47.6624 52.1062C47.6739 51.9004 47.7652 51.7072 47.917 51.5677C48.0687 51.4281 48.2689 51.3533 48.4749 51.3591C48.681 51.3648 48.8767 51.4508 49.0204 51.5986C49.1641 51.7464 49.2444 51.9444 49.2444 52.1506C49.0456 59.2609 49.3281 65.7039 49.9006 67.1369C50.795 69.3726 52.151 71.3282 55.9866 70.5071C59.6276 69.7259 60.9911 68.3453 61.598 64.8255C62.0646 62.1238 62.9855 54.4386 63.0987 52.9219C63.1143 52.7126 63.2124 52.5182 63.3713 52.3813C63.5303 52.2444 63.7371 52.1762 63.9463 52.1918C64.1556 52.2074 64.35 52.3055 64.4869 52.4644C64.6238 52.6234 64.692 52.8302 64.6764 53.0394C64.5582 54.6177 63.641 62.2888 63.1566 65.0945C62.4395 69.2526 60.586 71.1386 56.3177 72.054C55.6665 72.1979 55.002 72.273 54.335 72.278ZM32.2051 56.4921C31.8484 56.4917 31.4942 56.4333 31.1562 56.3191C28.505 55.4346 25.98 51.117 23.6507 43.4854C21.8779 37.6757 20.7545 31.6125 20.6561 29.6421C20.3637 23.8005 21.8687 19.667 25.1281 17.3574C31.5767 12.7881 42.4252 17.1395 42.8838 17.3266C43.0763 17.4072 43.2291 17.5605 43.3091 17.7532C43.389 17.9459 43.3896 18.1624 43.3107 18.3555C43.2318 18.5486 43.0798 18.7027 42.8878 18.7843C42.6958 18.8659 42.4793 18.8683 42.2855 18.7911V18.7917C42.1809 18.7486 31.7779 14.5813 26.0397 18.6507C23.2525 20.6273 21.9727 24.2984 22.2356 29.5639C22.3187 31.2235 23.3682 37.142 25.1638 43.0243C27.2431 49.8367 29.61 54.1363 31.6567 54.8184C31.9774 54.9261 32.9549 55.2517 34.3534 53.5713C36.9831 50.4073 39.3992 47.8823 39.4232 47.857C39.5703 47.7145 39.7669 47.6345 39.9718 47.634C40.1766 47.6334 40.3737 47.7122 40.5216 47.8539C40.6696 47.9956 40.7568 48.1892 40.765 48.3938C40.7732 48.5985 40.7017 48.7984 40.5656 48.9515C40.5416 48.9761 38.1625 51.4636 35.5698 54.5826C34.3417 56.0587 33.1642 56.4921 32.2051 56.4921ZM66.6271 49.8262C66.4835 49.8264 66.3425 49.7875 66.2193 49.7136C66.0961 49.6397 65.9954 49.5336 65.928 49.4068C65.8606 49.2799 65.829 49.1371 65.8367 48.9937C65.8444 48.8502 65.891 48.7116 65.9715 48.5926C73.3404 37.6579 75.9269 24.4462 73.7115 21.6159C70.9231 18.053 66.9853 16.1916 62.0086 16.0851C58.3232 16.005 55.3938 16.9462 54.9155 17.1106L54.7955 17.1592C54.3141 17.3106 53.9448 17.0466 53.8057 16.7382C53.7264 16.5615 53.7144 16.3619 53.772 16.177C53.8296 15.9921 53.9528 15.8346 54.1184 15.7342L54.3313 15.6468L54.3209 15.6499L54.332 15.6462C55.1451 15.3489 58.1189 14.4563 61.803 14.4988C67.3104 14.5566 71.8593 16.6809 74.958 20.6402C76.4243 22.5139 76.4274 26.8308 74.9673 32.4835C73.4789 38.2464 70.6781 44.4407 67.2839 49.4772C67.2115 49.5849 67.1138 49.6731 66.9992 49.7339C66.8846 49.7948 66.7568 49.8265 66.6271 49.8262ZM67.0032 54.8879C65.745 54.8879 64.6173 54.7113 63.942 54.3062C63.2477 53.8907 63.1153 53.325 63.0981 53.0253C62.9085 49.6988 64.7441 49.1196 65.6804 48.8555C65.5499 48.6585 65.364 48.4264 65.1725 48.187C64.6265 47.505 63.8792 46.5705 63.3031 45.1732C63.2132 44.9553 62.9301 44.4475 62.6026 43.8602C60.8279 40.6784 57.1358 34.0569 59.5076 30.6658C60.6057 29.0967 62.7909 28.4793 66.0115 28.824C65.0642 25.9377 60.5522 16.9081 49.8476 16.7326C46.6276 16.6785 43.9869 17.6689 42.003 19.6719C37.5605 24.1587 37.7218 32.2767 37.7236 32.3573C37.7263 32.4612 37.7085 32.5645 37.6713 32.6615C37.6341 32.7584 37.5781 32.8471 37.5066 32.9225C37.4351 32.9978 37.3495 33.0583 37.2546 33.1005C37.1597 33.1428 37.0574 33.1659 36.9535 33.1686C36.8497 33.1713 36.7464 33.1536 36.6494 33.1163C36.5524 33.0791 36.4637 33.0231 36.3884 32.9516C36.3131 32.8801 36.2526 32.7945 36.2103 32.6996C36.1681 32.6047 36.145 32.5024 36.1422 32.3986C36.1324 32.0385 35.9662 23.5198 40.879 18.5584C43.1781 16.2365 46.2041 15.0903 49.8735 15.15C56.7234 15.2627 61.1314 18.7443 63.6238 21.646C66.3396 24.8075 67.6717 28.2953 67.7813 29.4587C67.8631 30.3241 67.242 30.4977 67.1165 30.523L66.8315 30.5297C63.6706 30.0237 61.6429 30.3746 60.8045 31.5731C59.0003 34.1511 62.493 40.4143 63.9845 43.0896C64.3655 43.7716 64.6401 44.2647 64.7656 44.5694C65.2556 45.7574 65.8946 46.5558 66.408 47.1972C66.8592 47.7616 67.2507 48.2504 67.391 48.8253C67.4556 48.9392 68.3777 50.302 73.847 49.1731C75.2178 48.8906 76.0396 49.1325 76.2907 49.8921C76.785 51.3873 74.0119 53.1305 72.4767 53.844C71.0991 54.4835 68.9034 54.8879 67.0032 54.8879ZM64.6758 52.8948C64.8487 53.0702 65.7167 53.3718 67.5147 53.2949C69.1127 53.2259 70.7987 52.8781 71.8107 52.4091C73.1046 51.8083 73.9676 51.1367 74.4151 50.6781L74.1664 50.7237C70.6695 51.4457 68.1962 51.3497 66.8155 50.4375C66.7225 50.3763 66.6331 50.3099 66.5477 50.2386C66.3981 50.2977 66.2596 50.3365 66.1611 50.3642C65.3775 50.584 64.5674 50.8111 64.6758 52.8948ZM42.0867 57.3139C41.2181 57.3139 40.304 57.1963 39.3702 56.9618C38.4032 56.7198 36.772 55.9916 36.7972 54.7956C36.8249 53.4531 38.7768 53.0505 39.5124 52.8991C42.1667 52.3525 42.3397 52.1333 43.1694 51.0801C43.4114 50.7729 43.7124 50.3907 44.1223 49.9321C44.7317 49.2507 45.3978 48.9047 46.102 48.9047C46.5919 48.9047 46.9945 49.0715 47.2598 49.1811C48.1068 49.532 48.8135 50.3802 49.104 51.3959C49.3663 52.3118 49.2413 53.1933 48.7519 53.8778C47.1466 56.1264 44.8419 57.3139 42.0867 57.3139ZM38.506 54.8639C38.7448 55.048 39.2225 55.2942 39.7537 55.4278C40.5626 55.6297 41.3468 55.7325 42.0867 55.7325C44.3409 55.7325 46.15 54.7987 47.4648 52.9588C47.7387 52.5747 47.6569 52.0878 47.5836 51.8311C47.4297 51.2943 47.0481 50.8062 46.6547 50.6424C46.4411 50.5538 46.2645 50.4861 46.102 50.4861C46.0146 50.4861 45.7492 50.4861 45.3017 50.9865C44.9238 51.4088 44.6523 51.7535 44.4116 52.0582C43.3787 53.37 42.9054 53.815 39.8313 54.4484C39.0815 54.6036 38.6968 54.7599 38.506 54.8639ZM44.5889 51.2149C44.4001 51.2146 44.2176 51.1468 44.0743 51.0238C43.9311 50.9008 43.8366 50.7306 43.8078 50.544C43.7876 50.4126 43.7744 50.2803 43.7684 50.1475C41.753 50.1094 39.8091 49.2451 38.3336 47.705C36.4679 45.758 35.6184 43.0606 36.0037 40.3048C36.4223 37.3119 36.266 34.67 36.1816 33.2505C36.1605 32.9585 36.1476 32.666 36.1429 32.3733C36.1441 32.1234 36.149 31.4592 38.3681 30.3346C39.1572 29.9345 40.7398 29.2364 42.4683 29.0573C45.3331 28.7619 47.221 30.0373 47.7861 32.6497C49.3115 39.704 47.9068 42.8243 46.8813 45.1024C46.6898 45.5259 46.5095 45.9273 46.3654 46.3151L46.238 46.6579C45.6963 48.1107 45.2279 49.3658 45.3719 50.3039C45.4036 50.5113 45.3517 50.7227 45.2276 50.8919C45.1036 51.0611 44.9175 51.1741 44.7102 51.2063L44.5889 51.2149ZM37.7298 32.5918L37.7612 33.1569C37.8486 34.6312 38.0111 37.3753 37.5703 40.5245C37.2527 42.7972 37.9471 45.0163 39.4755 46.6112C40.6832 47.8718 42.2738 48.5674 43.9081 48.5674H43.942C44.1254 47.7961 44.4289 46.9823 44.7557 46.1052L44.8825 45.7648C45.0457 45.3265 45.2365 44.9024 45.4384 44.4536C46.4257 42.2598 47.6544 39.5292 46.2392 32.984C45.9585 31.6882 45.279 30.9378 44.1617 30.6904C41.8669 30.1832 38.4475 31.9092 37.7298 32.5918ZM42.504 32.2564C42.4646 32.5358 43.0168 33.2825 43.7358 33.3822C44.4541 33.4826 45.0691 32.899 45.1078 32.6195C45.1466 32.3395 44.5951 32.0317 43.8755 31.9314C43.1571 31.831 42.5422 31.9763 42.504 32.2564ZM43.9013 33.658L43.6994 33.6438C43.2532 33.5817 42.802 33.3004 42.4936 32.891C42.3852 32.7476 42.2079 32.4681 42.243 32.2194C42.2935 31.8544 42.7379 31.6365 43.4329 31.6365C43.5886 31.6365 43.7499 31.6482 43.913 31.6704C44.2922 31.7233 44.6449 31.8329 44.9053 31.9781C45.3565 32.2305 45.3898 32.5112 45.3694 32.6571C45.3134 33.0591 44.672 33.658 43.9013 33.658ZM42.7663 32.3032C42.789 32.4755 43.2156 33.0449 43.7721 33.1218L43.9007 33.1311C44.4141 33.1311 44.7982 32.7267 44.8431 32.5943C44.7957 32.5044 44.4658 32.2798 43.8392 32.1936C43.7044 32.1742 43.5684 32.1643 43.4323 32.164C43.0309 32.1634 42.8161 32.2539 42.7663 32.3032ZM64.3852 31.6857C64.424 31.9658 63.8731 32.7125 63.1535 32.8122C62.4345 32.9119 61.8196 32.329 61.7802 32.0489C61.742 31.7695 62.2936 31.4611 63.0125 31.3614C63.7315 31.2604 64.3458 31.4069 64.3852 31.6857ZM62.9879 32.955C62.2954 32.955 61.6989 32.4164 61.6497 32.0674C61.5931 31.6482 62.2831 31.3293 62.9947 31.2309C63.151 31.2087 63.3062 31.1976 63.4557 31.1976C64.0695 31.1976 64.4757 31.378 64.5163 31.6679C64.5428 31.8563 64.3988 32.1462 64.1501 32.4072C63.9864 32.5795 63.6416 32.8781 63.1726 32.9427L62.9879 32.955ZM63.4551 31.4611C63.3179 31.4611 63.175 31.4715 63.0304 31.4912C62.3151 31.5903 61.8898 31.8778 61.9101 32.0317C61.9341 32.2004 62.3902 32.6916 62.9873 32.6916L63.1344 32.6811C63.5247 32.6263 63.8177 32.3721 63.9574 32.225C64.1766 31.9941 64.264 31.7775 64.2535 31.703C64.2406 31.6063 63.9771 31.4611 63.4551 31.4611ZM65.4212 47.7444C65.2779 47.7443 65.1374 47.7053 65.0146 47.6316C64.8917 47.5579 64.7912 47.4521 64.7238 47.3257C64.6563 47.1993 64.6245 47.057 64.6316 46.9139C64.6388 46.7708 64.6847 46.6323 64.7644 46.5133C66.4486 43.9975 66.1402 41.4312 65.8423 38.9506C65.7148 37.893 65.5837 36.8004 65.6182 35.7509C65.6527 34.6718 65.7893 33.7817 65.9223 32.9199C66.0792 31.9 66.2276 30.9354 66.166 29.7917C66.1615 29.5861 66.2372 29.3869 66.3769 29.2361C66.5167 29.0853 66.7097 28.9948 66.915 28.9838C67.1203 28.9728 67.3218 29.042 67.4769 29.177C67.6321 29.3119 67.7286 29.5019 67.7462 29.7067C67.8164 31.0142 67.6483 32.1049 67.4858 33.1606C67.3602 33.975 67.2303 34.8171 67.1989 35.8014C67.1688 36.7302 67.2876 37.717 67.4132 38.761C67.7308 41.3999 68.0897 44.3908 66.0793 47.3929C65.9266 47.6207 65.6761 47.7444 65.4212 47.7444Z" fill="white"/>
<path d="M12 73.9954C12.8838 73.852 13.778 73.7825 14.6734 73.7874C16.0491 73.7874 17.058 74.1074 17.6982 74.6836C18.2904 75.1957 18.6425 75.98 18.6425 76.9409C18.6425 77.9171 18.3538 78.6853 17.8096 79.2455C17.0734 80.0297 15.8731 80.4298 14.5127 80.4298C14.0966 80.4298 13.7125 80.4138 13.393 80.3338V84.6556H12V73.9954ZM13.393 79.1969C13.6971 79.2769 14.0812 79.3089 14.5453 79.3089C16.2252 79.3089 17.2501 78.4927 17.2501 77.0043C17.2501 75.5799 16.2418 74.8917 14.7054 74.8917C14.0972 74.8917 13.6331 74.9397 13.393 75.0037V79.1969ZM27.0768 80.7173C27.0768 83.5821 25.0917 84.8311 23.2191 84.8311C21.1226 84.8311 19.5061 83.2946 19.5061 80.8453C19.5061 78.2526 21.2026 76.7322 23.3472 76.7322C25.5724 76.7316 27.0768 78.3486 27.0768 80.7173ZM20.9311 80.7973C20.9311 82.4938 21.9074 83.7741 23.2838 83.7741C24.6282 83.7741 25.6358 82.5098 25.6358 80.7653C25.6358 79.4529 24.9803 77.7885 23.3152 77.7885C21.6501 77.7885 20.9311 79.3249 20.9311 80.7973ZM28.6607 83.214C29.0768 83.4861 29.813 83.7741 30.5172 83.7741C31.5415 83.7741 32.0216 83.262 32.0216 82.6218C32.0216 81.9496 31.6221 81.5815 30.5812 81.1974C29.1888 80.7013 28.5326 79.9331 28.5326 79.0048C28.5326 77.7565 29.5409 76.7322 31.2054 76.7322C31.9896 76.7322 32.6784 76.9562 33.1105 77.2123L32.7584 78.2366C32.2821 77.9431 31.7335 77.7879 31.174 77.7885C30.3418 77.7885 29.8776 78.2686 29.8776 78.8448C29.8776 79.4849 30.3424 79.773 31.3507 80.1571C32.695 80.6693 33.3832 81.3415 33.3832 82.4938C33.3832 83.8542 32.3269 84.8144 30.4864 84.8144C29.6382 84.8144 28.854 84.6064 28.3098 84.2863L28.6607 83.214ZM36.8876 74.683V76.9076H38.9035V77.9799H36.8876V82.1571C36.8876 83.1173 37.159 83.6615 37.9439 83.6615C38.219 83.6655 38.4934 83.6332 38.7601 83.5655L38.8241 84.6218C38.5527 84.7338 38.1199 84.8138 37.5764 84.8138C36.9202 84.8138 36.3915 84.6058 36.0554 84.2217C35.6559 83.8055 35.5112 83.1174 35.5112 82.2051V77.9799H34.3109V76.9076H35.5112V75.0511L36.8876 74.683ZM47.0664 76.9082C47.0338 77.4684 47.0024 78.0926 47.0024 79.0368V83.5341C47.0024 85.3106 46.6503 86.3989 45.8981 87.0717C45.1459 87.7759 44.0576 87.9999 43.0813 87.9999C42.1531 87.9999 41.1288 87.7759 40.504 87.3598L40.8561 86.2875C41.3682 86.6076 42.1685 86.8956 43.1287 86.8956C44.5691 86.8956 45.6254 86.1434 45.6254 84.1909V83.3266H45.5934C45.1613 84.0468 44.3291 84.623 43.1287 84.623C41.2082 84.623 39.8318 82.9905 39.8318 80.8453C39.8318 78.2206 41.5443 76.7322 43.3208 76.7322C44.6658 76.7322 45.402 77.4364 45.7381 78.0766H45.7701L45.8341 76.9082H47.0664ZM45.61 79.9651C45.61 79.725 45.594 79.517 45.53 79.3249C45.2739 78.5087 44.5857 77.8365 43.5615 77.8365C42.2165 77.8365 41.2568 78.9728 41.2568 80.7653C41.2568 82.2857 42.025 83.5501 43.5455 83.5501C44.4097 83.5501 45.1939 83.0059 45.498 82.1097C45.578 81.8696 45.6106 81.5975 45.6106 81.3575L45.61 79.9651ZM49.2424 79.3249C49.2424 78.4126 49.2264 77.6284 49.1784 76.9082H50.4114L50.4588 78.4287H50.5228C50.8749 77.3884 51.7231 76.7322 52.6674 76.7322C52.8274 76.7322 52.9389 76.7482 53.0669 76.7802V78.1086C52.9094 78.0743 52.7485 78.0582 52.5874 78.0605C51.5951 78.0605 50.8903 78.8128 50.6988 79.8691C50.6593 80.0856 50.6379 80.3051 50.6348 80.5252V84.6544H49.2424V79.3249ZM55.1007 81.0374C55.1327 82.9419 56.3484 83.7261 57.7568 83.7261C58.7657 83.7261 59.3733 83.5501 59.9014 83.326L60.1415 84.3343C59.6453 84.5584 58.7971 84.8144 57.5648 84.8144C55.1801 84.8144 53.7557 83.246 53.7557 80.9093C53.7557 78.5727 55.1321 76.7316 57.3887 76.7316C59.9174 76.7316 60.5896 78.9562 60.5896 80.3806C60.5896 80.6687 60.5576 80.8927 60.5416 81.0368L55.1007 81.0374ZM59.2298 80.0291C59.2452 79.1328 58.8611 77.7405 57.2773 77.7405C55.8529 77.7405 55.2287 79.0528 55.1161 80.0291H59.2298Z" fill="black"/>
<path d="M62.1901 82.9578C62.9447 83.411 63.8067 83.6541 64.6868 83.662C66.1112 83.662 66.9435 82.9097 66.9435 81.8214C66.9435 80.8132 66.3673 80.237 64.9109 79.6768C63.1504 79.0527 62.0621 78.1404 62.0621 76.62C62.0621 74.9395 63.4545 73.6912 65.5511 73.6912C66.6554 73.6912 67.4556 73.9472 67.9357 74.2193L67.5516 75.3556C66.922 75.0172 66.2179 74.8411 65.503 74.8435C64.0306 74.8435 63.4705 75.7237 63.4705 76.4599C63.4705 77.4682 64.126 77.9644 65.6151 78.5405C67.4396 79.2453 68.3678 80.125 68.3678 81.7094C68.3678 83.3739 67.1355 84.8143 64.5908 84.8143C63.5505 84.8143 62.4142 84.5102 61.8374 84.1261L62.1901 82.9578ZM79.1709 86.2387C77.7796 85.8736 76.4023 85.4572 75.0417 84.9903C74.8177 84.9103 74.5936 84.8303 74.3855 84.8303C71.8248 84.7343 69.6322 82.8457 69.6322 79.3728C69.6322 75.9158 71.7448 73.6912 74.6576 73.6912C77.5864 73.6912 79.4916 75.9638 79.4916 79.1487C79.4916 81.9175 78.2112 83.694 76.4187 84.3181V84.3822C77.491 84.6542 78.6593 84.9103 79.5716 85.0704L79.1709 86.2387ZM78.0186 79.2127C78.0186 77.0521 76.8989 74.8269 74.6096 74.8269C72.2569 74.8269 71.1046 77.0035 71.1206 79.3407C71.1046 81.6294 72.369 83.694 74.5456 83.694C76.7708 83.694 78.0186 81.6774 78.0186 79.2127ZM81.2989 73.8672H82.6919V83.4859H87.3012V84.6542H81.2989V73.8672Z" fill="#336791"/>
</svg>
