<svg width="100" height="100" viewBox="0 0 100 100" fill="none" xmlns="http://www.w3.org/2000/svg">
<path d="M76.5625 0H23.4375C10.4933 0 0 10.4933 0 23.4375V76.5625C0 89.5067 10.4933 100 23.4375 100H76.5625C89.5067 100 100 89.5067 100 76.5625V23.4375C100 10.4933 89.5067 0 76.5625 0Z" fill="#F4F2ED"/>
<path d="M10.6289 71.4969C10.2516 71.3082 10 70.8679 10 70.3648C10 69.6101 10.566 69.044 11.3208 69.044C11.5723 69.044 11.8239 69.1069 12.0126 69.2327C13.3962 70.1761 14.9057 70.6163 16.2264 70.6163C17.673 70.6163 18.4906 69.9874 18.4906 69.044V68.9811C18.4906 67.8491 16.9182 67.4717 15.2201 66.9686C13.0818 66.3396 10.6918 65.4591 10.6918 62.6918V62.6289C10.6918 59.8616 12.956 58.2264 15.8491 58.2264C17.4214 58.2264 18.9937 58.6667 20.4403 59.4214C20.8805 59.673 21.2579 60.1132 21.2579 60.6792C21.2579 61.434 20.6289 62 19.8742 62C19.6226 62 19.434 61.9371 19.1824 61.8113C17.9874 61.1824 16.7925 60.805 15.7862 60.805C14.4654 60.805 13.7736 61.434 13.7736 62.2516V62.3145C13.7736 63.3836 15.3459 63.8239 17.044 64.3899C19.1824 65.0189 21.5723 66.0252 21.5723 68.6038V68.6667C21.5723 71.7484 19.1824 73.2579 16.1635 73.2579C14.3396 73.2579 12.327 72.6918 10.6289 71.4969ZM34.5912 65.7736C34.5912 62.9434 32.7044 61.1195 30.4403 61.1195C28.1761 61.1195 26.2264 63.0063 26.2264 65.7736V65.8365C26.2264 68.6038 28.1761 70.4906 30.4403 70.4906C32.7044 70.3648 34.5912 68.6038 34.5912 65.7736ZM23.0189 59.9245C23.0189 58.9811 23.7107 58.2264 24.6541 58.2264C25.5975 58.2264 26.3522 58.9811 26.3522 59.9245V60.9308C27.4214 59.4214 28.9308 58.2264 31.2579 58.2264C34.6541 58.2264 37.9874 60.9308 37.9874 65.7107V65.7736C37.9874 70.5535 34.717 73.2579 31.2579 73.2579C28.8679 73.2579 27.3585 72.0629 26.3522 70.7421V75.8365C26.3522 76.7799 25.5975 77.4717 24.6541 77.4717C23.7736 77.4717 23.0189 76.7799 23.0189 75.8365V59.9245ZM39.3711 59.8616C39.3711 58.9182 40.0629 58.1635 41.0063 58.1635C41.9497 58.1635 42.7044 58.9182 42.7044 59.8616V60.6792C42.8931 59.4214 44.9057 58.2264 46.3522 58.2264C47.4214 58.2264 47.9874 58.9182 47.9874 59.8616C47.9874 60.7421 47.4214 61.3082 46.6667 61.434C44.2767 61.8742 42.6415 63.8868 42.6415 66.7799V71.5597C42.6415 72.4402 41.8868 73.195 40.9434 73.195C40.0629 73.195 39.3082 72.5031 39.3082 71.5597V59.8616M49.4969 59.8616C49.4969 58.9182 50.2516 58.1635 51.195 58.1635C52.1384 58.1635 52.8931 58.9182 52.8931 59.8616V71.5597C52.8931 72.5031 52.1384 73.195 51.195 73.195C50.2516 73.195 49.4969 72.5031 49.4969 71.5597V59.8616ZM54.3396 59.9245C54.3396 58.9811 55.0943 58.2264 56.0377 58.2264C56.9811 58.2264 57.7987 58.9811 57.7987 59.9245V60.6164C58.7421 59.2956 60.1887 58.2264 62.5157 58.2264C65.9119 58.2264 67.8616 60.4277 67.8616 63.761V71.5597C67.8616 72.5031 67.1069 73.195 66.1635 73.195C65.2201 73.195 64.4025 72.5031 64.4025 71.5597V64.7673C64.4025 62.5031 63.2075 61.2453 61.195 61.2453C59.1824 61.2453 57.7987 62.566 57.7987 64.8302V71.5597C57.7987 72.5031 57.044 73.195 56.0377 73.195C55.0943 73.195 54.3396 72.5031 54.3396 71.5597V59.9245ZM76.5409 70.4277C74.2138 70.4277 72.2641 68.6667 72.2641 65.7736V65.7107C72.2641 62.8805 74.2138 61.0566 76.5409 61.0566C78.8679 61.0566 80.8805 62.9434 80.8805 65.7107V65.7736C80.8805 68.5409 78.8679 70.4277 76.5409 70.4277ZM82.5157 58.2893C81.5723 58.2893 80.8176 59.044 80.8176 59.9874V60.9937C79.6855 59.4843 78.1761 58.2893 75.7233 58.2893C72.2013 58.2893 68.805 60.9937 68.805 65.8365V65.8994C68.805 70.6792 72.2013 73.4465 75.7233 73.4465C78.1761 73.4465 79.7484 72.2516 80.8176 70.9308C80.6289 73.5723 78.9937 74.8931 76.1006 74.8931C74.4025 74.8931 72.8931 74.4528 71.5094 73.761C71.3208 73.6981 71.1321 73.6352 70.8805 73.6352C70.0629 73.6352 69.434 74.2641 69.434 75.0189C69.434 75.6478 69.8113 76.0881 70.3774 76.3396C72.2013 77.2201 74.0252 77.6604 76.1635 77.6604C78.8679 77.6604 80.9434 77.0314 82.327 75.7107C83.5849 74.5157 84.2767 72.6918 84.2767 70.239V59.9245C84.2138 58.9811 83.4591 58.2893 82.5157 58.2893ZM52.8931 54.2013C52.8931 55.0818 52.1384 55.8365 51.195 55.8365C50.2516 55.8365 49.4969 55.0818 49.4969 54.2013C49.4969 53.3208 50.2516 52.566 51.195 52.566C52.1384 52.566 52.8931 53.3208 52.8931 54.2013ZM61.6981 43.3208C57.9874 48.2264 50 46.5912 44.8428 46.7799C44.8428 46.7799 43.9623 46.8428 43.0189 46.9686C43.0189 46.9686 43.3962 46.8428 43.7736 46.6541C47.3585 45.4591 49.0566 45.2075 51.2579 44.0755C55.3459 42 59.434 37.5346 60.2516 32.8805C58.6792 37.3459 53.9623 41.1824 49.6226 42.7547C46.6667 43.8239 41.3208 44.8302 41.3208 44.8302L41.1321 44.7044C37.4843 43.0063 37.3585 35.2704 44.0252 32.8176C46.9182 31.7484 49.6855 32.3145 52.8302 31.6226C56.1635 30.8679 60.0629 28.4151 61.6352 25.2075C63.3962 30.4277 65.5346 38.4151 61.6981 43.3208ZM61.761 23.6981C61.3208 24.7044 60.7547 25.6478 60.1258 26.4654C57.3585 23.6981 53.522 22 49.2453 22C40.8805 22 34.088 28.6667 34.088 36.7799C34.088 41.0566 35.9748 44.8931 38.9308 47.5975L39.2453 47.9119C38.6792 47.4717 38.6164 46.6541 39.0566 46.1509C39.4969 45.5849 40.3145 45.522 40.8805 45.9623C41.4465 46.4025 41.5094 47.2201 41.0692 47.7233C40.6289 48.2893 39.8113 48.3522 39.2453 47.9119L39.4969 48.1006C42.1384 50.239 45.5346 51.5597 49.2453 51.5597C57.2327 51.5597 63.7736 45.4591 64.3396 37.8491C64.8428 34.1384 63.7107 29.3585 61.761 23.6981ZM88.239 59.2956H87.673V60.0503H88.239C88.4277 60.0503 88.6164 59.9245 88.6164 59.673C88.6164 59.4214 88.4277 59.2956 88.239 59.2956ZM88.5535 61.1824L87.9874 60.3019H87.6101V61.1824H87.2956V59.044H88.1761C88.5535 59.044 88.8679 59.2956 88.8679 59.673C88.8679 60.1761 88.4277 60.3019 88.3019 60.3019L88.8679 61.1824H88.5535ZM88.0503 58.478C87.1698 58.478 86.4151 59.1698 86.4151 60.0503C86.4151 60.9308 87.1698 61.6226 88.0503 61.6226C88.9308 61.6226 89.6855 60.9308 89.6855 60.0503C89.6855 59.2327 88.9308 58.478 88.0503 58.478ZM88.0503 62C86.9811 62 86.1006 61.1824 86.1006 60.1132C86.1006 59.044 86.9811 58.2264 88.0503 58.2264C89.1195 58.2264 90 59.044 90 60.1132C90 61.1195 89.1195 62 88.0503 62Z" fill="#5FB832"/>
</svg>
